M48
; DRILL file {KiCad (6.0.2)} date Tue 08 Mar 2022 09:31:44 AM CET
; FORMAT={-:-/ absolute / metric / decimal}
; #@! TF.CreationDate,2022-03-08T09:31:44+01:00
; #@! TF.GenerationSoftware,Kicad,Pcbnew,(6.0.2)
; #@! TF.FileFunction,NonPlated,1,2,NPTH
FMAT,2
METRIC
; #@! TA.AperFunction,NonPlated,NPTH,ComponentDrill
T1C1.700
; #@! TA.AperFunction,NonPlated,NPTH,ComponentDrill
T2C1.900
; #@! TA.AperFunction,NonPlated,NPTH,ComponentDrill
T3C4.000
; #@! TA.AperFunction,NonPlated,NPTH,ComponentDrill
T4C4.300
%
G90
G05
T1
X108.253Y-121.385
X117.052Y-116.305
X120.175Y-52.81
X120.175Y-71.81
X120.175Y-90.81
X127.546Y-112.36
X130.335Y-52.81
X130.335Y-71.81
X130.335Y-90.81
X137.36Y-109.73
X139.175Y-50.313
X139.175Y-69.313
X139.175Y-88.313
X148.173Y-108.245
X149.335Y-50.313
X149.335Y-69.313
X149.335Y-88.313
X158.175Y-48.06
X158.175Y-67.06
X158.175Y-86.06
X158.333Y-108.245
X168.335Y-48.06
X168.335Y-67.06
X168.335Y-86.06
X177.175Y-50.311
X177.175Y-69.311
X177.175Y-88.311
X187.335Y-50.311
X187.335Y-69.311
X187.335Y-88.311
X196.175Y-62.774
X196.175Y-81.774
X196.175Y-100.774
X206.335Y-62.774
X206.335Y-81.774
X206.335Y-100.774
T2
X107.89Y-121.595
X117.416Y-116.095
X119.755Y-52.81
X119.755Y-71.81
X119.755Y-90.81
X127.14Y-112.469
X130.755Y-52.81
X130.755Y-71.81
X130.755Y-90.81
X137.765Y-109.622
X138.755Y-50.313
X138.755Y-69.313
X138.755Y-88.313
X147.753Y-108.245
X149.755Y-50.313
X149.755Y-69.313
X149.755Y-88.313
X157.755Y-48.06
X157.755Y-67.06
X157.755Y-86.06
X158.753Y-108.245
X168.755Y-48.06
X168.755Y-67.06
X168.755Y-86.06
X176.755Y-50.311
X176.755Y-69.311
X176.755Y-88.311
X187.755Y-50.311
X187.755Y-69.311
X187.755Y-88.311
X195.755Y-62.774
X195.755Y-81.774
X195.755Y-100.774
X206.755Y-62.774
X206.755Y-81.774
X206.755Y-100.774
T3
X112.653Y-118.845
X125.255Y-52.81
X125.255Y-71.81
X125.255Y-90.81
X132.453Y-111.045
X144.255Y-50.313
X144.255Y-69.313
X144.255Y-88.313
X153.253Y-108.245
X163.255Y-48.06
X163.255Y-67.06
X163.255Y-86.06
X182.255Y-50.311
X182.255Y-69.311
X182.255Y-88.311
X201.255Y-62.774
X201.255Y-81.774
X201.255Y-100.774
T4
X121.026Y-108.691
X134.776Y-61.181
X191.752Y-72.371
X191.752Y-91.371
T0
M30
