M48
; DRILL file {KiCad (6.0.2)} date Tue 08 Mar 2022 09:31:44 AM CET
; FORMAT={-:-/ absolute / metric / decimal}
; #@! TF.CreationDate,2022-03-08T09:31:44+01:00
; #@! TF.GenerationSoftware,Kicad,Pcbnew,(6.0.2)
; #@! TF.FileFunction,Plated,1,2,PTH
FMAT,2
METRIC
; #@! TA.AperFunction,Plated,PTH,ViaDrill
T1C0.400
; #@! TA.AperFunction,Plated,PTH,ComponentDrill
T2C0.813
; #@! TA.AperFunction,Plated,PTH,ComponentDrill
T3C1.000
; #@! TA.AperFunction,Plated,PTH,ComponentDrill
T4C1.092
; #@! TA.AperFunction,Plated,PTH,ComponentDrill
T5C1.200
; #@! TA.AperFunction,Plated,PTH,ComponentDrill
T6C1.300
; #@! TA.AperFunction,Plated,PTH,ComponentDrill
T7C1.500
; #@! TA.AperFunction,Plated,PTH,ComponentDrill
T8C2.300
%
G90
G05
T1
X106.894Y-96.405
X107.704Y-58.384
X107.733Y-70.396
X107.783Y-67.068
X110.895Y-56.337
X113.346Y-98.92
X113.397Y-97.752
X114.191Y-97.048
T2
X100.744Y-83.417
X103.284Y-83.417
X105.824Y-83.417
X108.364Y-83.417
X110.904Y-83.417
T3
X168.87Y-99.428
X171.41Y-99.428
X173.95Y-99.428
X176.49Y-99.428
T4
X98.03Y-51.422
X98.03Y-53.962
X98.03Y-56.502
X98.03Y-59.042
X98.03Y-61.582
X98.03Y-64.122
X98.03Y-66.662
X98.03Y-69.202
X98.03Y-71.742
X98.03Y-74.282
X98.03Y-76.822
X98.03Y-79.362
X108.19Y-79.362
X113.27Y-51.422
X113.27Y-53.962
X113.27Y-56.502
X113.27Y-59.042
X113.27Y-61.582
X113.27Y-64.122
X113.27Y-66.662
X113.27Y-69.202
X113.27Y-71.742
X113.27Y-74.282
X113.27Y-76.822
X113.27Y-79.362
T5
X106.286Y-118.018
X109.703Y-113.736
X115.12Y-112.918
X120.155Y-48.91
X120.155Y-67.91
X120.155Y-86.91
X125.255Y-46.91
X125.255Y-65.91
X125.255Y-84.91
X126.517Y-108.598
X130.355Y-48.91
X130.355Y-67.91
X130.355Y-86.91
X130.926Y-105.346
X136.37Y-105.958
X139.155Y-46.413
X139.155Y-65.413
X139.155Y-84.413
X144.255Y-44.413
X144.255Y-63.413
X144.255Y-82.413
X148.153Y-104.345
X149.355Y-46.413
X149.355Y-65.413
X149.355Y-84.413
X153.253Y-102.345
X158.155Y-44.16
X158.155Y-63.16
X158.155Y-82.16
X158.353Y-104.345
X163.255Y-42.16
X163.255Y-61.16
X163.255Y-80.16
X168.355Y-44.16
X168.355Y-63.16
X168.355Y-82.16
X177.155Y-46.411
X177.155Y-65.411
X177.155Y-84.411
X182.255Y-44.411
X182.255Y-63.411
X182.255Y-82.411
X187.355Y-46.411
X187.355Y-65.411
X187.355Y-84.411
X196.155Y-58.874
X196.155Y-77.874
X196.155Y-96.874
X201.255Y-56.874
X201.255Y-75.874
X201.255Y-94.874
X206.355Y-58.874
X206.355Y-77.874
X206.355Y-96.874
T6
X179.96Y-99.428
X186.46Y-99.428
T7
X107.913Y-115.716
X108.083Y-118.551
X108.203Y-116.218
X108.453Y-116.651
X112.313Y-113.176
X112.603Y-113.678
X112.853Y-114.111
X114.682Y-114.741
X121.445Y-50.27
X121.445Y-69.27
X121.445Y-88.27
X122.715Y-47.73
X122.715Y-48.31
X122.715Y-48.81
X122.715Y-66.73
X122.715Y-67.31
X122.715Y-67.81
X122.715Y-85.73
X122.715Y-86.31
X122.715Y-86.81
X127.795Y-47.73
X127.795Y-48.31
X127.795Y-48.81
X127.795Y-66.73
X127.795Y-67.31
X127.795Y-67.81
X127.795Y-85.73
X127.795Y-86.31
X127.795Y-86.81
X128.115Y-109.578
X128.685Y-106.796
X128.835Y-107.356
X128.964Y-107.839
X129.065Y-50.27
X129.065Y-69.27
X129.065Y-88.27
X133.591Y-105.481
X133.742Y-106.041
X133.871Y-106.524
X135.476Y-107.606
X140.445Y-47.773
X140.445Y-66.773
X140.445Y-85.773
X141.715Y-45.233
X141.715Y-45.813
X141.715Y-46.313
X141.715Y-64.233
X141.715Y-64.813
X141.715Y-65.313
X141.715Y-83.233
X141.715Y-83.813
X141.715Y-84.313
X146.795Y-45.233
X146.795Y-45.813
X146.795Y-46.313
X146.795Y-64.233
X146.795Y-64.813
X146.795Y-65.313
X146.795Y-83.233
X146.795Y-83.813
X146.795Y-84.313
X148.065Y-47.773
X148.065Y-66.773
X148.065Y-85.773
X149.443Y-105.705
X150.713Y-103.165
X150.713Y-103.745
X150.713Y-104.245
X155.793Y-103.165
X155.793Y-103.745
X155.793Y-104.245
X157.063Y-105.705
X159.445Y-45.52
X159.445Y-64.52
X159.445Y-83.52
X160.715Y-42.98
X160.715Y-43.56
X160.715Y-44.06
X160.715Y-61.98
X160.715Y-62.56
X160.715Y-63.06
X160.715Y-80.98
X160.715Y-81.56
X160.715Y-82.06
X165.795Y-42.98
X165.795Y-43.56
X165.795Y-44.06
X165.795Y-61.98
X165.795Y-62.56
X165.795Y-63.06
X165.795Y-80.98
X165.795Y-81.56
X165.795Y-82.06
X167.065Y-45.52
X167.065Y-64.52
X167.065Y-83.52
X178.445Y-47.771
X178.445Y-66.771
X178.445Y-85.771
X179.715Y-45.231
X179.715Y-45.811
X179.715Y-46.311
X179.715Y-64.231
X179.715Y-64.811
X179.715Y-65.311
X179.715Y-83.231
X179.715Y-83.811
X179.715Y-84.311
X184.795Y-45.231
X184.795Y-45.811
X184.795Y-46.311
X184.795Y-64.231
X184.795Y-64.811
X184.795Y-65.311
X184.795Y-83.231
X184.795Y-83.811
X184.795Y-84.311
X186.065Y-47.771
X186.065Y-66.771
X186.065Y-85.771
X197.445Y-60.234
X197.445Y-79.234
X197.445Y-98.234
X198.715Y-57.694
X198.715Y-58.274
X198.715Y-58.774
X198.715Y-76.694
X198.715Y-77.274
X198.715Y-77.774
X198.715Y-95.694
X198.715Y-96.274
X198.715Y-96.774
X203.795Y-57.694
X203.795Y-58.274
X203.795Y-58.774
X203.795Y-76.694
X203.795Y-77.274
X203.795Y-77.774
X203.795Y-95.694
X203.795Y-96.274
X203.795Y-96.774
X205.065Y-60.234
X205.065Y-79.234
X205.065Y-98.234
T8
X98.057Y-83.1
T0
M30
