G04 #@! TF.GenerationSoftware,KiCad,Pcbnew,(6.0.2)*
G04 #@! TF.CreationDate,2022-03-08T09:31:39+01:00*
G04 #@! TF.ProjectId,pierce,70696572-6365-42e6-9b69-6361645f7063,v 0.1*
G04 #@! TF.SameCoordinates,Original*
G04 #@! TF.FileFunction,Legend,Bot*
G04 #@! TF.FilePolarity,Positive*
%FSLAX46Y46*%
G04 Gerber Fmt 4.6, Leading zero omitted, Abs format (unit mm)*
G04 Created by KiCad (PCBNEW (6.0.2)) date 2022-03-08 09:31:39*
%MOMM*%
%LPD*%
G01*
G04 APERTURE LIST*
G04 Aperture macros list*
%AMHorizOval*
0 Thick line with rounded ends*
0 $1 width*
0 $2 $3 position (X,Y) of the first rounded end (center of the circle)*
0 $4 $5 position (X,Y) of the second rounded end (center of the circle)*
0 Add line between two ends*
20,1,$1,$2,$3,$4,$5,0*
0 Add two circle primitives to create the rounded ends*
1,1,$1,$2,$3*
1,1,$1,$4,$5*%
G04 Aperture macros list end*
%ADD10C,0.120000*%
%ADD11C,0.150000*%
%ADD12C,0.187500*%
%ADD13C,0.300000*%
%ADD14C,0.381000*%
%ADD15R,1.752600X1.752600*%
%ADD16C,1.752600*%
%ADD17C,4.000000*%
%ADD18C,1.700000*%
%ADD19C,1.900000*%
%ADD20C,2.400000*%
%ADD21HorizOval,1.550000X0.108530X0.615505X-0.108530X-0.615505X0*%
%ADD22HorizOval,1.250000X0.082483X0.467784X-0.082483X-0.467784X0*%
%ADD23HorizOval,1.250000X0.446354X-0.162460X-0.446354X0.162460X0*%
%ADD24C,2.200000*%
%ADD25HorizOval,1.550000X0.587308X-0.213763X-0.587308X0.213763X0*%
%ADD26HorizOval,1.550000X0.264136X0.566442X-0.264136X-0.566442X0*%
%ADD27HorizOval,1.250000X0.389097X-0.272449X-0.389097X0.272449X0*%
%ADD28HorizOval,1.250000X0.200744X0.430496X-0.200744X-0.430496X0*%
%ADD29HorizOval,1.550000X0.511970X-0.358485X-0.511970X0.358485X0*%
%ADD30HorizOval,1.250000X0.305324X0.363871X-0.305324X-0.363871X0*%
%ADD31HorizOval,1.550000X0.401742X0.478778X-0.401742X-0.478778X0*%
%ADD32HorizOval,1.250000X0.305324X-0.363871X-0.305324X0.363871X0*%
%ADD33HorizOval,1.550000X0.401742X-0.478778X-0.401742X0.478778X0*%
%ADD34C,4.300000*%
%ADD35O,1.397000X1.778000*%
%ADD36C,2.300000*%
%ADD37C,2.000000*%
%ADD38R,1.400000X1.000000*%
%ADD39R,1.700000X1.700000*%
%ADD40O,1.700000X1.700000*%
G04 APERTURE END LIST*
D10*
X102474600Y-64698800D02*
X109474600Y-64698800D01*
X102474600Y-48198800D02*
X102474600Y-64698800D01*
X109474600Y-48198800D02*
X109474600Y-64698800D01*
X102474600Y-48198800D02*
X109474600Y-48198800D01*
D11*
X106619876Y-61400114D02*
X106619876Y-62066780D01*
X106857971Y-61019161D02*
X107096066Y-61733447D01*
X106477019Y-61733447D01*
X106096066Y-62066780D02*
X106096066Y-61066780D01*
X106000828Y-61685828D02*
X105715114Y-62066780D01*
X105715114Y-61400114D02*
X106096066Y-61781066D01*
X105381780Y-61066780D02*
X104715114Y-61066780D01*
X105143685Y-62066780D01*
X101752733Y-81208666D02*
X101519400Y-81908666D01*
X101286066Y-81208666D01*
X100652733Y-81842000D02*
X100686066Y-81875333D01*
X100786066Y-81908666D01*
X100852733Y-81908666D01*
X100952733Y-81875333D01*
X101019400Y-81808666D01*
X101052733Y-81742000D01*
X101086066Y-81608666D01*
X101086066Y-81508666D01*
X101052733Y-81375333D01*
X101019400Y-81308666D01*
X100952733Y-81242000D01*
X100852733Y-81208666D01*
X100786066Y-81208666D01*
X100686066Y-81242000D01*
X100652733Y-81275333D01*
X99952733Y-81842000D02*
X99986066Y-81875333D01*
X100086066Y-81908666D01*
X100152733Y-81908666D01*
X100252733Y-81875333D01*
X100319400Y-81808666D01*
X100352733Y-81742000D01*
X100386066Y-81608666D01*
X100386066Y-81508666D01*
X100352733Y-81375333D01*
X100319400Y-81308666D01*
X100252733Y-81242000D01*
X100152733Y-81208666D01*
X100086066Y-81208666D01*
X99986066Y-81242000D01*
X99952733Y-81275333D01*
X103827733Y-81242000D02*
X103894400Y-81208666D01*
X103994400Y-81208666D01*
X104094400Y-81242000D01*
X104161066Y-81308666D01*
X104194400Y-81375333D01*
X104227733Y-81508666D01*
X104227733Y-81608666D01*
X104194400Y-81742000D01*
X104161066Y-81808666D01*
X104094400Y-81875333D01*
X103994400Y-81908666D01*
X103927733Y-81908666D01*
X103827733Y-81875333D01*
X103794400Y-81842000D01*
X103794400Y-81608666D01*
X103927733Y-81608666D01*
X103494400Y-81908666D02*
X103494400Y-81208666D01*
X103094400Y-81908666D01*
X103094400Y-81208666D01*
X102761066Y-81908666D02*
X102761066Y-81208666D01*
X102594400Y-81208666D01*
X102494400Y-81242000D01*
X102427733Y-81308666D01*
X102394400Y-81375333D01*
X102361066Y-81508666D01*
X102361066Y-81608666D01*
X102394400Y-81742000D01*
X102427733Y-81808666D01*
X102494400Y-81875333D01*
X102594400Y-81908666D01*
X102761066Y-81908666D01*
X106802733Y-81875333D02*
X106702733Y-81908666D01*
X106536066Y-81908666D01*
X106469400Y-81875333D01*
X106436066Y-81842000D01*
X106402733Y-81775333D01*
X106402733Y-81708666D01*
X106436066Y-81642000D01*
X106469400Y-81608666D01*
X106536066Y-81575333D01*
X106669400Y-81542000D01*
X106736066Y-81508666D01*
X106769400Y-81475333D01*
X106802733Y-81408666D01*
X106802733Y-81342000D01*
X106769400Y-81275333D01*
X106736066Y-81242000D01*
X106669400Y-81208666D01*
X106502733Y-81208666D01*
X106402733Y-81242000D01*
X105702733Y-81842000D02*
X105736066Y-81875333D01*
X105836066Y-81908666D01*
X105902733Y-81908666D01*
X106002733Y-81875333D01*
X106069400Y-81808666D01*
X106102733Y-81742000D01*
X106136066Y-81608666D01*
X106136066Y-81508666D01*
X106102733Y-81375333D01*
X106069400Y-81308666D01*
X106002733Y-81242000D01*
X105902733Y-81208666D01*
X105836066Y-81208666D01*
X105736066Y-81242000D01*
X105702733Y-81275333D01*
X105069400Y-81908666D02*
X105402733Y-81908666D01*
X105402733Y-81208666D01*
X108727733Y-81908666D02*
X108961066Y-81575333D01*
X109127733Y-81908666D02*
X109127733Y-81208666D01*
X108861066Y-81208666D01*
X108794400Y-81242000D01*
X108761066Y-81275333D01*
X108727733Y-81342000D01*
X108727733Y-81442000D01*
X108761066Y-81508666D01*
X108794400Y-81542000D01*
X108861066Y-81575333D01*
X109127733Y-81575333D01*
X108461066Y-81875333D02*
X108361066Y-81908666D01*
X108194400Y-81908666D01*
X108127733Y-81875333D01*
X108094400Y-81842000D01*
X108061066Y-81775333D01*
X108061066Y-81708666D01*
X108094400Y-81642000D01*
X108127733Y-81608666D01*
X108194400Y-81575333D01*
X108327733Y-81542000D01*
X108394400Y-81508666D01*
X108427733Y-81475333D01*
X108461066Y-81408666D01*
X108461066Y-81342000D01*
X108427733Y-81275333D01*
X108394400Y-81242000D01*
X108327733Y-81208666D01*
X108161066Y-81208666D01*
X108061066Y-81242000D01*
X107861066Y-81208666D02*
X107461066Y-81208666D01*
X107661066Y-81908666D02*
X107661066Y-81208666D01*
X111769400Y-81875333D02*
X111669400Y-81908666D01*
X111502733Y-81908666D01*
X111436066Y-81875333D01*
X111402733Y-81842000D01*
X111369400Y-81775333D01*
X111369400Y-81708666D01*
X111402733Y-81642000D01*
X111436066Y-81608666D01*
X111502733Y-81575333D01*
X111636066Y-81542000D01*
X111702733Y-81508666D01*
X111736066Y-81475333D01*
X111769400Y-81408666D01*
X111769400Y-81342000D01*
X111736066Y-81275333D01*
X111702733Y-81242000D01*
X111636066Y-81208666D01*
X111469400Y-81208666D01*
X111369400Y-81242000D01*
X111069400Y-81908666D02*
X111069400Y-81208666D01*
X110902733Y-81208666D01*
X110802733Y-81242000D01*
X110736066Y-81308666D01*
X110702733Y-81375333D01*
X110669400Y-81508666D01*
X110669400Y-81608666D01*
X110702733Y-81742000D01*
X110736066Y-81808666D01*
X110802733Y-81875333D01*
X110902733Y-81908666D01*
X111069400Y-81908666D01*
X110402733Y-81708666D02*
X110069400Y-81708666D01*
X110469400Y-81908666D02*
X110236066Y-81208666D01*
X110002733Y-81908666D01*
X106721276Y-67006514D02*
X106721276Y-67673180D01*
X106959371Y-66625561D02*
X107197466Y-67339847D01*
X106578419Y-67339847D01*
X106197466Y-67673180D02*
X106197466Y-66673180D01*
X106102228Y-67292228D02*
X105816514Y-67673180D01*
X105816514Y-67006514D02*
X106197466Y-67387466D01*
X105483180Y-66673180D02*
X104816514Y-66673180D01*
X105245085Y-67673180D01*
X106721276Y-70206914D02*
X106721276Y-70873580D01*
X106959371Y-69825961D02*
X107197466Y-70540247D01*
X106578419Y-70540247D01*
X106197466Y-70873580D02*
X106197466Y-69873580D01*
X106102228Y-70492628D02*
X105816514Y-70873580D01*
X105816514Y-70206914D02*
X106197466Y-70587866D01*
X105483180Y-69873580D02*
X104816514Y-69873580D01*
X105245085Y-70873580D01*
D12*
X169340228Y-97071800D02*
X169411657Y-97036085D01*
X169518800Y-97036085D01*
X169625942Y-97071800D01*
X169697371Y-97143228D01*
X169733085Y-97214657D01*
X169768800Y-97357514D01*
X169768800Y-97464657D01*
X169733085Y-97607514D01*
X169697371Y-97678942D01*
X169625942Y-97750371D01*
X169518800Y-97786085D01*
X169447371Y-97786085D01*
X169340228Y-97750371D01*
X169304514Y-97714657D01*
X169304514Y-97464657D01*
X169447371Y-97464657D01*
X168983085Y-97786085D02*
X168983085Y-97036085D01*
X168554514Y-97786085D01*
X168554514Y-97036085D01*
X168197371Y-97786085D02*
X168197371Y-97036085D01*
X168018800Y-97036085D01*
X167911657Y-97071800D01*
X167840228Y-97143228D01*
X167804514Y-97214657D01*
X167768800Y-97357514D01*
X167768800Y-97464657D01*
X167804514Y-97607514D01*
X167840228Y-97678942D01*
X167911657Y-97750371D01*
X168018800Y-97786085D01*
X168197371Y-97786085D01*
X171729828Y-97765457D02*
X171765542Y-97801171D01*
X171872685Y-97836885D01*
X171944114Y-97836885D01*
X172051257Y-97801171D01*
X172122685Y-97729742D01*
X172158400Y-97658314D01*
X172194114Y-97515457D01*
X172194114Y-97408314D01*
X172158400Y-97265457D01*
X172122685Y-97194028D01*
X172051257Y-97122600D01*
X171944114Y-97086885D01*
X171872685Y-97086885D01*
X171765542Y-97122600D01*
X171729828Y-97158314D01*
X171051257Y-97836885D02*
X171408400Y-97836885D01*
X171408400Y-97086885D01*
X170801257Y-97836885D02*
X170801257Y-97086885D01*
X170372685Y-97836885D02*
X170694114Y-97408314D01*
X170372685Y-97086885D02*
X170801257Y-97515457D01*
X174667457Y-97887685D02*
X174667457Y-97137685D01*
X174488885Y-97137685D01*
X174381742Y-97173400D01*
X174310314Y-97244828D01*
X174274600Y-97316257D01*
X174238885Y-97459114D01*
X174238885Y-97566257D01*
X174274600Y-97709114D01*
X174310314Y-97780542D01*
X174381742Y-97851971D01*
X174488885Y-97887685D01*
X174667457Y-97887685D01*
X173917457Y-97887685D02*
X173917457Y-97137685D01*
X173417457Y-97137685D02*
X173274600Y-97137685D01*
X173203171Y-97173400D01*
X173131742Y-97244828D01*
X173096028Y-97387685D01*
X173096028Y-97637685D01*
X173131742Y-97780542D01*
X173203171Y-97851971D01*
X173274600Y-97887685D01*
X173417457Y-97887685D01*
X173488885Y-97851971D01*
X173560314Y-97780542D01*
X173596028Y-97637685D01*
X173596028Y-97387685D01*
X173560314Y-97244828D01*
X173488885Y-97173400D01*
X173417457Y-97137685D01*
X177546742Y-97163085D02*
X177082457Y-97163085D01*
X177332457Y-97448800D01*
X177225314Y-97448800D01*
X177153885Y-97484514D01*
X177118171Y-97520228D01*
X177082457Y-97591657D01*
X177082457Y-97770228D01*
X177118171Y-97841657D01*
X177153885Y-97877371D01*
X177225314Y-97913085D01*
X177439600Y-97913085D01*
X177511028Y-97877371D01*
X177546742Y-97841657D01*
X176761028Y-97841657D02*
X176725314Y-97877371D01*
X176761028Y-97913085D01*
X176796742Y-97877371D01*
X176761028Y-97841657D01*
X176761028Y-97913085D01*
X176475314Y-97163085D02*
X176011028Y-97163085D01*
X176261028Y-97448800D01*
X176153885Y-97448800D01*
X176082457Y-97484514D01*
X176046742Y-97520228D01*
X176011028Y-97591657D01*
X176011028Y-97770228D01*
X176046742Y-97841657D01*
X176082457Y-97877371D01*
X176153885Y-97913085D01*
X176368171Y-97913085D01*
X176439600Y-97877371D01*
X176475314Y-97841657D01*
X175796742Y-97163085D02*
X175546742Y-97913085D01*
X175296742Y-97163085D01*
D13*
X110190694Y-97398271D02*
X110003194Y-95898271D01*
X110074623Y-96469700D02*
X109922837Y-96398271D01*
X109637123Y-96398271D01*
X109503194Y-96469700D01*
X109440694Y-96541128D01*
X109387123Y-96683985D01*
X109440694Y-97112557D01*
X109529980Y-97255414D01*
X109610337Y-97326842D01*
X109762123Y-97398271D01*
X110047837Y-97398271D01*
X110181766Y-97326842D01*
X108851408Y-96398271D02*
X108619266Y-97398271D01*
X108137123Y-96398271D02*
X108619266Y-97398271D01*
X108806766Y-97755414D01*
X108887123Y-97826842D01*
X109038908Y-97898271D01*
X105904980Y-97398271D02*
X105717480Y-95898271D01*
X105896051Y-97326842D02*
X106047837Y-97398271D01*
X106333551Y-97398271D01*
X106467480Y-97326842D01*
X106529980Y-97255414D01*
X106583551Y-97112557D01*
X106529980Y-96683985D01*
X106440694Y-96541128D01*
X106360337Y-96469700D01*
X106208551Y-96398271D01*
X105922837Y-96398271D01*
X105788908Y-96469700D01*
X104422837Y-96398271D02*
X104547837Y-97398271D01*
X105065694Y-96398271D02*
X105163908Y-97183985D01*
X105110337Y-97326842D01*
X104976408Y-97398271D01*
X104762123Y-97398271D01*
X104610337Y-97326842D01*
X104529980Y-97255414D01*
X103833551Y-97398271D02*
X103708551Y-96398271D01*
X103744266Y-96683985D02*
X103654980Y-96541128D01*
X103574623Y-96469700D01*
X103422837Y-96398271D01*
X103279980Y-96398271D01*
X102904980Y-97398271D02*
X102717480Y-95898271D01*
X102690694Y-96826842D02*
X102333551Y-97398271D01*
X102208551Y-96398271D02*
X102851408Y-96969700D01*
X101110337Y-97326842D02*
X101262123Y-97398271D01*
X101547837Y-97398271D01*
X101681766Y-97326842D01*
X101735337Y-97183985D01*
X101663908Y-96612557D01*
X101574623Y-96469700D01*
X101422837Y-96398271D01*
X101137123Y-96398271D01*
X101003194Y-96469700D01*
X100949623Y-96612557D01*
X100967480Y-96755414D01*
X101699623Y-96898271D01*
X100279980Y-96398271D02*
X100404980Y-97398271D01*
X100297837Y-96541128D02*
X100217480Y-96469700D01*
X100065694Y-96398271D01*
X99851408Y-96398271D01*
X99717480Y-96469700D01*
X99663908Y-96612557D01*
X99762123Y-97398271D01*
D11*
X106669876Y-58100114D02*
X106669876Y-58766780D01*
X106907971Y-57719161D02*
X107146066Y-58433447D01*
X106527019Y-58433447D01*
X106146066Y-58766780D02*
X106146066Y-57766780D01*
X106050828Y-58385828D02*
X105765114Y-58766780D01*
X105765114Y-58100114D02*
X106146066Y-58481066D01*
X105431780Y-57766780D02*
X104765114Y-57766780D01*
X105193685Y-58766780D01*
D13*
X110232800Y-95366271D02*
X110232800Y-93866271D01*
X109661371Y-93866271D01*
X109518514Y-93937700D01*
X109447085Y-94009128D01*
X109375657Y-94151985D01*
X109375657Y-94366271D01*
X109447085Y-94509128D01*
X109518514Y-94580557D01*
X109661371Y-94651985D01*
X110232800Y-94651985D01*
X108732800Y-95366271D02*
X108732800Y-94366271D01*
X108732800Y-93866271D02*
X108804228Y-93937700D01*
X108732800Y-94009128D01*
X108661371Y-93937700D01*
X108732800Y-93866271D01*
X108732800Y-94009128D01*
X107447085Y-95294842D02*
X107589942Y-95366271D01*
X107875657Y-95366271D01*
X108018514Y-95294842D01*
X108089942Y-95151985D01*
X108089942Y-94580557D01*
X108018514Y-94437700D01*
X107875657Y-94366271D01*
X107589942Y-94366271D01*
X107447085Y-94437700D01*
X107375657Y-94580557D01*
X107375657Y-94723414D01*
X108089942Y-94866271D01*
X106732800Y-95366271D02*
X106732800Y-94366271D01*
X106732800Y-94651985D02*
X106661371Y-94509128D01*
X106589942Y-94437700D01*
X106447085Y-94366271D01*
X106304228Y-94366271D01*
X105161371Y-95294842D02*
X105304228Y-95366271D01*
X105589942Y-95366271D01*
X105732800Y-95294842D01*
X105804228Y-95223414D01*
X105875657Y-95080557D01*
X105875657Y-94651985D01*
X105804228Y-94509128D01*
X105732800Y-94437700D01*
X105589942Y-94366271D01*
X105304228Y-94366271D01*
X105161371Y-94437700D01*
X103947085Y-95294842D02*
X104089942Y-95366271D01*
X104375657Y-95366271D01*
X104518514Y-95294842D01*
X104589942Y-95151985D01*
X104589942Y-94580557D01*
X104518514Y-94437700D01*
X104375657Y-94366271D01*
X104089942Y-94366271D01*
X103947085Y-94437700D01*
X103875657Y-94580557D01*
X103875657Y-94723414D01*
X104589942Y-94866271D01*
X102161371Y-94009128D02*
X102089942Y-93937700D01*
X101947085Y-93866271D01*
X101589942Y-93866271D01*
X101447085Y-93937700D01*
X101375657Y-94009128D01*
X101304228Y-94151985D01*
X101304228Y-94294842D01*
X101375657Y-94509128D01*
X102232800Y-95366271D01*
X101304228Y-95366271D01*
X100661371Y-95223414D02*
X100589942Y-95294842D01*
X100661371Y-95366271D01*
X100732800Y-95294842D01*
X100661371Y-95223414D01*
X100661371Y-95366271D01*
X99661371Y-93866271D02*
X99518514Y-93866271D01*
X99375657Y-93937700D01*
X99304228Y-94009128D01*
X99232800Y-94151985D01*
X99161371Y-94437700D01*
X99161371Y-94794842D01*
X99232800Y-95080557D01*
X99304228Y-95223414D01*
X99375657Y-95294842D01*
X99518514Y-95366271D01*
X99661371Y-95366271D01*
X99804228Y-95294842D01*
X99875657Y-95223414D01*
X99947085Y-95080557D01*
X100018514Y-94794842D01*
X100018514Y-94437700D01*
X99947085Y-94151985D01*
X99875657Y-94009128D01*
X99804228Y-93937700D01*
X99661371Y-93866271D01*
D11*
X107000828Y-52316780D02*
X107572257Y-52316780D01*
X107286542Y-52316780D02*
X107286542Y-51316780D01*
X107381780Y-51459638D01*
X107477019Y-51554876D01*
X107572257Y-51602495D01*
X106381780Y-51316780D02*
X106286542Y-51316780D01*
X106191304Y-51364400D01*
X106143685Y-51412019D01*
X106096066Y-51507257D01*
X106048447Y-51697733D01*
X106048447Y-51935828D01*
X106096066Y-52126304D01*
X106143685Y-52221542D01*
X106191304Y-52269161D01*
X106286542Y-52316780D01*
X106381780Y-52316780D01*
X106477019Y-52269161D01*
X106524638Y-52221542D01*
X106572257Y-52126304D01*
X106619876Y-51935828D01*
X106619876Y-51697733D01*
X106572257Y-51507257D01*
X106524638Y-51412019D01*
X106477019Y-51364400D01*
X106381780Y-51316780D01*
X105429400Y-51316780D02*
X105334161Y-51316780D01*
X105238923Y-51364400D01*
X105191304Y-51412019D01*
X105143685Y-51507257D01*
X105096066Y-51697733D01*
X105096066Y-51935828D01*
X105143685Y-52126304D01*
X105191304Y-52221542D01*
X105238923Y-52269161D01*
X105334161Y-52316780D01*
X105429400Y-52316780D01*
X105524638Y-52269161D01*
X105572257Y-52221542D01*
X105619876Y-52126304D01*
X105667495Y-51935828D01*
X105667495Y-51697733D01*
X105619876Y-51507257D01*
X105572257Y-51412019D01*
X105524638Y-51364400D01*
X105429400Y-51316780D01*
X104667495Y-52316780D02*
X104667495Y-51316780D01*
X104572257Y-51935828D02*
X104286542Y-52316780D01*
X104286542Y-51650114D02*
X104667495Y-52031066D01*
X108679200Y-49280085D02*
X108393485Y-49280085D01*
X108572057Y-49030085D02*
X108572057Y-49672942D01*
X108536342Y-49744371D01*
X108464914Y-49780085D01*
X108393485Y-49780085D01*
X108143485Y-49780085D02*
X108143485Y-49280085D01*
X108143485Y-49422942D02*
X108107771Y-49351514D01*
X108072057Y-49315800D01*
X108000628Y-49280085D01*
X107929200Y-49280085D01*
X107357771Y-49780085D02*
X107357771Y-49387228D01*
X107393485Y-49315800D01*
X107464914Y-49280085D01*
X107607771Y-49280085D01*
X107679200Y-49315800D01*
X107357771Y-49744371D02*
X107429200Y-49780085D01*
X107607771Y-49780085D01*
X107679200Y-49744371D01*
X107714914Y-49672942D01*
X107714914Y-49601514D01*
X107679200Y-49530085D01*
X107607771Y-49494371D01*
X107429200Y-49494371D01*
X107357771Y-49458657D01*
X106679200Y-49744371D02*
X106750628Y-49780085D01*
X106893485Y-49780085D01*
X106964914Y-49744371D01*
X107000628Y-49708657D01*
X107036342Y-49637228D01*
X107036342Y-49422942D01*
X107000628Y-49351514D01*
X106964914Y-49315800D01*
X106893485Y-49280085D01*
X106750628Y-49280085D01*
X106679200Y-49315800D01*
X106357771Y-49780085D02*
X106357771Y-49030085D01*
X106286342Y-49494371D02*
X106072057Y-49780085D01*
X106072057Y-49280085D02*
X106357771Y-49565800D01*
X105750628Y-49280085D02*
X105750628Y-50030085D01*
X105750628Y-49315800D02*
X105679200Y-49280085D01*
X105536342Y-49280085D01*
X105464914Y-49315800D01*
X105429200Y-49351514D01*
X105393485Y-49422942D01*
X105393485Y-49637228D01*
X105429200Y-49708657D01*
X105464914Y-49744371D01*
X105536342Y-49780085D01*
X105679200Y-49780085D01*
X105750628Y-49744371D01*
X104964914Y-49780085D02*
X105036342Y-49744371D01*
X105072057Y-49708657D01*
X105107771Y-49637228D01*
X105107771Y-49422942D01*
X105072057Y-49351514D01*
X105036342Y-49315800D01*
X104964914Y-49280085D01*
X104857771Y-49280085D01*
X104786342Y-49315800D01*
X104750628Y-49351514D01*
X104714914Y-49422942D01*
X104714914Y-49637228D01*
X104750628Y-49708657D01*
X104786342Y-49744371D01*
X104857771Y-49780085D01*
X104964914Y-49780085D01*
X104393485Y-49780085D02*
X104393485Y-49280085D01*
X104393485Y-49030085D02*
X104429200Y-49065800D01*
X104393485Y-49101514D01*
X104357771Y-49065800D01*
X104393485Y-49030085D01*
X104393485Y-49101514D01*
X104036342Y-49280085D02*
X104036342Y-49780085D01*
X104036342Y-49351514D02*
X104000628Y-49315800D01*
X103929200Y-49280085D01*
X103822057Y-49280085D01*
X103750628Y-49315800D01*
X103714914Y-49387228D01*
X103714914Y-49780085D01*
X103464914Y-49280085D02*
X103179200Y-49280085D01*
X103357771Y-49030085D02*
X103357771Y-49672942D01*
X103322057Y-49744371D01*
X103250628Y-49780085D01*
X103179200Y-49780085D01*
X107810352Y-54632019D02*
X107762733Y-54584400D01*
X107667495Y-54536780D01*
X107429400Y-54536780D01*
X107334161Y-54584400D01*
X107286542Y-54632019D01*
X107238923Y-54727257D01*
X107238923Y-54822495D01*
X107286542Y-54965352D01*
X107857971Y-55536780D01*
X107238923Y-55536780D01*
X106810352Y-55441542D02*
X106762733Y-55489161D01*
X106810352Y-55536780D01*
X106857971Y-55489161D01*
X106810352Y-55441542D01*
X106810352Y-55536780D01*
X106381780Y-54632019D02*
X106334161Y-54584400D01*
X106238923Y-54536780D01*
X106000828Y-54536780D01*
X105905590Y-54584400D01*
X105857971Y-54632019D01*
X105810352Y-54727257D01*
X105810352Y-54822495D01*
X105857971Y-54965352D01*
X106429400Y-55536780D01*
X105810352Y-55536780D01*
X104953209Y-54870114D02*
X104953209Y-55536780D01*
X105381780Y-54870114D02*
X105381780Y-55393923D01*
X105334161Y-55489161D01*
X105238923Y-55536780D01*
X105096066Y-55536780D01*
X105000828Y-55489161D01*
X104953209Y-55441542D01*
X104143685Y-55012971D02*
X104477019Y-55012971D01*
X104477019Y-55536780D02*
X104477019Y-54536780D01*
X104000828Y-54536780D01*
X100499895Y-56863904D02*
X100766561Y-56482952D01*
X100957038Y-56863904D02*
X100957038Y-56063904D01*
X100652276Y-56063904D01*
X100576085Y-56102000D01*
X100537990Y-56140095D01*
X100499895Y-56216285D01*
X100499895Y-56330571D01*
X100537990Y-56406761D01*
X100576085Y-56444857D01*
X100652276Y-56482952D01*
X100957038Y-56482952D01*
X100195133Y-56825809D02*
X100080847Y-56863904D01*
X99890371Y-56863904D01*
X99814180Y-56825809D01*
X99776085Y-56787714D01*
X99737990Y-56711523D01*
X99737990Y-56635333D01*
X99776085Y-56559142D01*
X99814180Y-56521047D01*
X99890371Y-56482952D01*
X100042752Y-56444857D01*
X100118942Y-56406761D01*
X100157038Y-56368666D01*
X100195133Y-56292476D01*
X100195133Y-56216285D01*
X100157038Y-56140095D01*
X100118942Y-56102000D01*
X100042752Y-56063904D01*
X99852276Y-56063904D01*
X99737990Y-56102000D01*
X99509419Y-56063904D02*
X99052276Y-56063904D01*
X99280847Y-56863904D02*
X99280847Y-56063904D01*
X111828276Y-67023904D02*
X111828276Y-66223904D01*
X111637800Y-66223904D01*
X111523514Y-66262000D01*
X111447323Y-66338190D01*
X111409228Y-66414380D01*
X111371133Y-66566761D01*
X111371133Y-66681047D01*
X111409228Y-66833428D01*
X111447323Y-66909619D01*
X111523514Y-66985809D01*
X111637800Y-67023904D01*
X111828276Y-67023904D01*
X110685419Y-66490571D02*
X110685419Y-67023904D01*
X110875895Y-66185809D02*
X111066371Y-66757238D01*
X110571133Y-66757238D01*
X100328466Y-69144857D02*
X100595133Y-69144857D01*
X100595133Y-69563904D02*
X100595133Y-68763904D01*
X100214180Y-68763904D01*
X99985609Y-68763904D02*
X99452276Y-68763904D01*
X99795133Y-69563904D01*
X111828276Y-64483904D02*
X111828276Y-63683904D01*
X111637800Y-63683904D01*
X111523514Y-63722000D01*
X111447323Y-63798190D01*
X111409228Y-63874380D01*
X111371133Y-64026761D01*
X111371133Y-64141047D01*
X111409228Y-64293428D01*
X111447323Y-64369619D01*
X111523514Y-64445809D01*
X111637800Y-64483904D01*
X111828276Y-64483904D01*
X110875895Y-63683904D02*
X110799704Y-63683904D01*
X110723514Y-63722000D01*
X110685419Y-63760095D01*
X110647323Y-63836285D01*
X110609228Y-63988666D01*
X110609228Y-64179142D01*
X110647323Y-64331523D01*
X110685419Y-64407714D01*
X110723514Y-64445809D01*
X110799704Y-64483904D01*
X110875895Y-64483904D01*
X110952085Y-64445809D01*
X110990180Y-64407714D01*
X111028276Y-64331523D01*
X111066371Y-64179142D01*
X111066371Y-63988666D01*
X111028276Y-63836285D01*
X110990180Y-63760095D01*
X110952085Y-63722000D01*
X110875895Y-63683904D01*
X112164791Y-77856297D02*
X112117651Y-77950578D01*
X112117651Y-77997719D01*
X112141221Y-78068429D01*
X112211932Y-78139140D01*
X112282642Y-78162710D01*
X112329783Y-78162710D01*
X112400493Y-78139140D01*
X112589055Y-77950578D01*
X112094080Y-77455603D01*
X111929089Y-77620595D01*
X111905519Y-77691306D01*
X111905519Y-77738446D01*
X111929089Y-77809157D01*
X111976229Y-77856297D01*
X112046940Y-77879867D01*
X112094080Y-77879867D01*
X112164791Y-77856297D01*
X112329783Y-77691306D01*
X111363403Y-78186280D02*
X111599106Y-77950578D01*
X111858378Y-78162710D01*
X111811238Y-78162710D01*
X111740527Y-78186280D01*
X111622676Y-78304132D01*
X111599106Y-78374842D01*
X111599106Y-78421983D01*
X111622676Y-78492693D01*
X111740527Y-78610544D01*
X111811238Y-78634115D01*
X111858378Y-78634115D01*
X111929089Y-78610544D01*
X112046940Y-78492693D01*
X112070510Y-78421983D01*
X112070510Y-78374842D01*
X100893609Y-51364857D02*
X100779323Y-51402952D01*
X100741228Y-51441047D01*
X100703133Y-51517238D01*
X100703133Y-51631523D01*
X100741228Y-51707714D01*
X100779323Y-51745809D01*
X100855514Y-51783904D01*
X101160276Y-51783904D01*
X101160276Y-50983904D01*
X100893609Y-50983904D01*
X100817419Y-51022000D01*
X100779323Y-51060095D01*
X100741228Y-51136285D01*
X100741228Y-51212476D01*
X100779323Y-51288666D01*
X100817419Y-51326761D01*
X100893609Y-51364857D01*
X101160276Y-51364857D01*
X100207895Y-50983904D02*
X100131704Y-50983904D01*
X100055514Y-51022000D01*
X100017419Y-51060095D01*
X99979323Y-51136285D01*
X99941228Y-51288666D01*
X99941228Y-51479142D01*
X99979323Y-51631523D01*
X100017419Y-51707714D01*
X100055514Y-51745809D01*
X100131704Y-51783904D01*
X100207895Y-51783904D01*
X100284085Y-51745809D01*
X100322180Y-51707714D01*
X100360276Y-51631523D01*
X100398371Y-51479142D01*
X100398371Y-51288666D01*
X100360276Y-51136285D01*
X100322180Y-51060095D01*
X100284085Y-51022000D01*
X100207895Y-50983904D01*
X100328466Y-66604857D02*
X100595133Y-66604857D01*
X100595133Y-67023904D02*
X100595133Y-66223904D01*
X100214180Y-66223904D01*
X99566561Y-66223904D02*
X99718942Y-66223904D01*
X99795133Y-66262000D01*
X99833228Y-66300095D01*
X99909419Y-66414380D01*
X99947514Y-66566761D01*
X99947514Y-66871523D01*
X99909419Y-66947714D01*
X99871323Y-66985809D01*
X99795133Y-67023904D01*
X99642752Y-67023904D01*
X99566561Y-66985809D01*
X99528466Y-66947714D01*
X99490371Y-66871523D01*
X99490371Y-66681047D01*
X99528466Y-66604857D01*
X99566561Y-66566761D01*
X99642752Y-66528666D01*
X99795133Y-66528666D01*
X99871323Y-66566761D01*
X99909419Y-66604857D01*
X99947514Y-66681047D01*
X111574276Y-54323904D02*
X111574276Y-53523904D01*
X111383800Y-53523904D01*
X111269514Y-53562000D01*
X111193323Y-53638190D01*
X111155228Y-53714380D01*
X111117133Y-53866761D01*
X111117133Y-53981047D01*
X111155228Y-54133428D01*
X111193323Y-54209619D01*
X111269514Y-54285809D01*
X111383800Y-54323904D01*
X111574276Y-54323904D01*
X110812371Y-53600095D02*
X110774276Y-53562000D01*
X110698085Y-53523904D01*
X110507609Y-53523904D01*
X110431419Y-53562000D01*
X110393323Y-53600095D01*
X110355228Y-53676285D01*
X110355228Y-53752476D01*
X110393323Y-53866761D01*
X110850466Y-54323904D01*
X110355228Y-54323904D01*
X111790180Y-74224857D02*
X111523514Y-74224857D01*
X111409228Y-74643904D02*
X111790180Y-74643904D01*
X111790180Y-73843904D01*
X111409228Y-73843904D01*
X110723514Y-73843904D02*
X110875895Y-73843904D01*
X110952085Y-73882000D01*
X110990180Y-73920095D01*
X111066371Y-74034380D01*
X111104466Y-74186761D01*
X111104466Y-74491523D01*
X111066371Y-74567714D01*
X111028276Y-74605809D01*
X110952085Y-74643904D01*
X110799704Y-74643904D01*
X110723514Y-74605809D01*
X110685419Y-74567714D01*
X110647323Y-74491523D01*
X110647323Y-74301047D01*
X110685419Y-74224857D01*
X110723514Y-74186761D01*
X110799704Y-74148666D01*
X110952085Y-74148666D01*
X111028276Y-74186761D01*
X111066371Y-74224857D01*
X111104466Y-74301047D01*
X99535502Y-78256991D02*
X99441221Y-78209851D01*
X99394080Y-78209851D01*
X99323370Y-78233421D01*
X99252659Y-78304132D01*
X99229089Y-78374842D01*
X99229089Y-78421983D01*
X99252659Y-78492693D01*
X99441221Y-78681255D01*
X99936196Y-78186280D01*
X99771204Y-78021289D01*
X99700493Y-77997719D01*
X99653353Y-77997719D01*
X99582642Y-78021289D01*
X99535502Y-78068429D01*
X99511932Y-78139140D01*
X99511932Y-78186280D01*
X99535502Y-78256991D01*
X99700493Y-78421983D01*
X99229089Y-77479174D02*
X99323370Y-77573455D01*
X99346940Y-77644165D01*
X99346940Y-77691306D01*
X99323370Y-77809157D01*
X99252659Y-77927008D01*
X99064097Y-78115570D01*
X98993387Y-78139140D01*
X98946246Y-78139140D01*
X98875535Y-78115570D01*
X98781255Y-78021289D01*
X98757684Y-77950578D01*
X98757684Y-77903438D01*
X98781255Y-77832727D01*
X98899106Y-77714876D01*
X98969816Y-77691306D01*
X99016957Y-77691306D01*
X99087667Y-77714876D01*
X99181948Y-77809157D01*
X99205519Y-77879867D01*
X99205519Y-77927008D01*
X99181948Y-77997719D01*
X101382466Y-58603904D02*
X101115800Y-59403904D01*
X100849133Y-58603904D01*
X100125323Y-59327714D02*
X100163419Y-59365809D01*
X100277704Y-59403904D01*
X100353895Y-59403904D01*
X100468180Y-59365809D01*
X100544371Y-59289619D01*
X100582466Y-59213428D01*
X100620561Y-59061047D01*
X100620561Y-58946761D01*
X100582466Y-58794380D01*
X100544371Y-58718190D01*
X100468180Y-58642000D01*
X100353895Y-58603904D01*
X100277704Y-58603904D01*
X100163419Y-58642000D01*
X100125323Y-58680095D01*
X99325323Y-59327714D02*
X99363419Y-59365809D01*
X99477704Y-59403904D01*
X99553895Y-59403904D01*
X99668180Y-59365809D01*
X99744371Y-59289619D01*
X99782466Y-59213428D01*
X99820561Y-59061047D01*
X99820561Y-58946761D01*
X99782466Y-58794380D01*
X99744371Y-58718190D01*
X99668180Y-58642000D01*
X99553895Y-58603904D01*
X99477704Y-58603904D01*
X99363419Y-58642000D01*
X99325323Y-58680095D01*
X111593323Y-58642000D02*
X111669514Y-58603904D01*
X111783800Y-58603904D01*
X111898085Y-58642000D01*
X111974276Y-58718190D01*
X112012371Y-58794380D01*
X112050466Y-58946761D01*
X112050466Y-59061047D01*
X112012371Y-59213428D01*
X111974276Y-59289619D01*
X111898085Y-59365809D01*
X111783800Y-59403904D01*
X111707609Y-59403904D01*
X111593323Y-59365809D01*
X111555228Y-59327714D01*
X111555228Y-59061047D01*
X111707609Y-59061047D01*
X111212371Y-59403904D02*
X111212371Y-58603904D01*
X110755228Y-59403904D01*
X110755228Y-58603904D01*
X110374276Y-59403904D02*
X110374276Y-58603904D01*
X110183800Y-58603904D01*
X110069514Y-58642000D01*
X109993323Y-58718190D01*
X109955228Y-58794380D01*
X109917133Y-58946761D01*
X109917133Y-59061047D01*
X109955228Y-59213428D01*
X109993323Y-59289619D01*
X110069514Y-59365809D01*
X110183800Y-59403904D01*
X110374276Y-59403904D01*
X108780276Y-78153904D02*
X108780276Y-77353904D01*
X108589800Y-77353904D01*
X108475514Y-77392000D01*
X108399323Y-77468190D01*
X108361228Y-77544380D01*
X108323133Y-77696761D01*
X108323133Y-77811047D01*
X108361228Y-77963428D01*
X108399323Y-78039619D01*
X108475514Y-78115809D01*
X108589800Y-78153904D01*
X108780276Y-78153904D01*
X107599323Y-77353904D02*
X107980276Y-77353904D01*
X108018371Y-77734857D01*
X107980276Y-77696761D01*
X107904085Y-77658666D01*
X107713609Y-77658666D01*
X107637419Y-77696761D01*
X107599323Y-77734857D01*
X107561228Y-77811047D01*
X107561228Y-78001523D01*
X107599323Y-78077714D01*
X107637419Y-78115809D01*
X107713609Y-78153904D01*
X107904085Y-78153904D01*
X107980276Y-78115809D01*
X108018371Y-78077714D01*
X100385609Y-71684857D02*
X100271323Y-71722952D01*
X100233228Y-71761047D01*
X100195133Y-71837238D01*
X100195133Y-71951523D01*
X100233228Y-72027714D01*
X100271323Y-72065809D01*
X100347514Y-72103904D01*
X100652276Y-72103904D01*
X100652276Y-71303904D01*
X100385609Y-71303904D01*
X100309419Y-71342000D01*
X100271323Y-71380095D01*
X100233228Y-71456285D01*
X100233228Y-71532476D01*
X100271323Y-71608666D01*
X100309419Y-71646761D01*
X100385609Y-71684857D01*
X100652276Y-71684857D01*
X99433228Y-72103904D02*
X99890371Y-72103904D01*
X99661800Y-72103904D02*
X99661800Y-71303904D01*
X99737990Y-71418190D01*
X99814180Y-71494380D01*
X99890371Y-71532476D01*
X100328466Y-61524857D02*
X100595133Y-61524857D01*
X100595133Y-61943904D02*
X100595133Y-61143904D01*
X100214180Y-61143904D01*
X99566561Y-61410571D02*
X99566561Y-61943904D01*
X99757038Y-61105809D02*
X99947514Y-61677238D01*
X99452276Y-61677238D01*
X111828276Y-61943904D02*
X111828276Y-61143904D01*
X111637800Y-61143904D01*
X111523514Y-61182000D01*
X111447323Y-61258190D01*
X111409228Y-61334380D01*
X111371133Y-61486761D01*
X111371133Y-61601047D01*
X111409228Y-61753428D01*
X111447323Y-61829619D01*
X111523514Y-61905809D01*
X111637800Y-61943904D01*
X111828276Y-61943904D01*
X110609228Y-61943904D02*
X111066371Y-61943904D01*
X110837800Y-61943904D02*
X110837800Y-61143904D01*
X110913990Y-61258190D01*
X110990180Y-61334380D01*
X111066371Y-61372476D01*
X100328466Y-64064857D02*
X100595133Y-64064857D01*
X100595133Y-64483904D02*
X100595133Y-63683904D01*
X100214180Y-63683904D01*
X99528466Y-63683904D02*
X99909419Y-63683904D01*
X99947514Y-64064857D01*
X99909419Y-64026761D01*
X99833228Y-63988666D01*
X99642752Y-63988666D01*
X99566561Y-64026761D01*
X99528466Y-64064857D01*
X99490371Y-64141047D01*
X99490371Y-64331523D01*
X99528466Y-64407714D01*
X99566561Y-64445809D01*
X99642752Y-64483904D01*
X99833228Y-64483904D01*
X99909419Y-64445809D01*
X99947514Y-64407714D01*
X111371133Y-69487714D02*
X111409228Y-69525809D01*
X111523514Y-69563904D01*
X111599704Y-69563904D01*
X111713990Y-69525809D01*
X111790180Y-69449619D01*
X111828276Y-69373428D01*
X111866371Y-69221047D01*
X111866371Y-69106761D01*
X111828276Y-68954380D01*
X111790180Y-68878190D01*
X111713990Y-68802000D01*
X111599704Y-68763904D01*
X111523514Y-68763904D01*
X111409228Y-68802000D01*
X111371133Y-68840095D01*
X110685419Y-68763904D02*
X110837800Y-68763904D01*
X110913990Y-68802000D01*
X110952085Y-68840095D01*
X111028276Y-68954380D01*
X111066371Y-69106761D01*
X111066371Y-69411523D01*
X111028276Y-69487714D01*
X110990180Y-69525809D01*
X110913990Y-69563904D01*
X110761609Y-69563904D01*
X110685419Y-69525809D01*
X110647323Y-69487714D01*
X110609228Y-69411523D01*
X110609228Y-69221047D01*
X110647323Y-69144857D01*
X110685419Y-69106761D01*
X110761609Y-69068666D01*
X110913990Y-69068666D01*
X110990180Y-69106761D01*
X111028276Y-69144857D01*
X111066371Y-69221047D01*
X100925323Y-53562000D02*
X101001514Y-53523904D01*
X101115800Y-53523904D01*
X101230085Y-53562000D01*
X101306276Y-53638190D01*
X101344371Y-53714380D01*
X101382466Y-53866761D01*
X101382466Y-53981047D01*
X101344371Y-54133428D01*
X101306276Y-54209619D01*
X101230085Y-54285809D01*
X101115800Y-54323904D01*
X101039609Y-54323904D01*
X100925323Y-54285809D01*
X100887228Y-54247714D01*
X100887228Y-53981047D01*
X101039609Y-53981047D01*
X100544371Y-54323904D02*
X100544371Y-53523904D01*
X100087228Y-54323904D01*
X100087228Y-53523904D01*
X99706276Y-54323904D02*
X99706276Y-53523904D01*
X99515800Y-53523904D01*
X99401514Y-53562000D01*
X99325323Y-53638190D01*
X99287228Y-53714380D01*
X99249133Y-53866761D01*
X99249133Y-53981047D01*
X99287228Y-54133428D01*
X99325323Y-54209619D01*
X99401514Y-54285809D01*
X99515800Y-54323904D01*
X99706276Y-54323904D01*
X111828276Y-72103904D02*
X111828276Y-71303904D01*
X111637800Y-71303904D01*
X111523514Y-71342000D01*
X111447323Y-71418190D01*
X111409228Y-71494380D01*
X111371133Y-71646761D01*
X111371133Y-71761047D01*
X111409228Y-71913428D01*
X111447323Y-71989619D01*
X111523514Y-72065809D01*
X111637800Y-72103904D01*
X111828276Y-72103904D01*
X111104466Y-71303904D02*
X110571133Y-71303904D01*
X110913990Y-72103904D01*
X111339323Y-56102000D02*
X111415514Y-56063904D01*
X111529800Y-56063904D01*
X111644085Y-56102000D01*
X111720276Y-56178190D01*
X111758371Y-56254380D01*
X111796466Y-56406761D01*
X111796466Y-56521047D01*
X111758371Y-56673428D01*
X111720276Y-56749619D01*
X111644085Y-56825809D01*
X111529800Y-56863904D01*
X111453609Y-56863904D01*
X111339323Y-56825809D01*
X111301228Y-56787714D01*
X111301228Y-56521047D01*
X111453609Y-56521047D01*
X110958371Y-56863904D02*
X110958371Y-56063904D01*
X110501228Y-56863904D01*
X110501228Y-56063904D01*
X110120276Y-56863904D02*
X110120276Y-56063904D01*
X109929800Y-56063904D01*
X109815514Y-56102000D01*
X109739323Y-56178190D01*
X109701228Y-56254380D01*
X109663133Y-56406761D01*
X109663133Y-56521047D01*
X109701228Y-56673428D01*
X109739323Y-56749619D01*
X109815514Y-56825809D01*
X109929800Y-56863904D01*
X110120276Y-56863904D01*
X100385609Y-76764857D02*
X100271323Y-76802952D01*
X100233228Y-76841047D01*
X100195133Y-76917238D01*
X100195133Y-77031523D01*
X100233228Y-77107714D01*
X100271323Y-77145809D01*
X100347514Y-77183904D01*
X100652276Y-77183904D01*
X100652276Y-76383904D01*
X100385609Y-76383904D01*
X100309419Y-76422000D01*
X100271323Y-76460095D01*
X100233228Y-76536285D01*
X100233228Y-76612476D01*
X100271323Y-76688666D01*
X100309419Y-76726761D01*
X100385609Y-76764857D01*
X100652276Y-76764857D01*
X99890371Y-76460095D02*
X99852276Y-76422000D01*
X99776085Y-76383904D01*
X99585609Y-76383904D01*
X99509419Y-76422000D01*
X99471323Y-76460095D01*
X99433228Y-76536285D01*
X99433228Y-76612476D01*
X99471323Y-76726761D01*
X99928466Y-77183904D01*
X99433228Y-77183904D01*
X100385609Y-74224857D02*
X100271323Y-74262952D01*
X100233228Y-74301047D01*
X100195133Y-74377238D01*
X100195133Y-74491523D01*
X100233228Y-74567714D01*
X100271323Y-74605809D01*
X100347514Y-74643904D01*
X100652276Y-74643904D01*
X100652276Y-73843904D01*
X100385609Y-73843904D01*
X100309419Y-73882000D01*
X100271323Y-73920095D01*
X100233228Y-73996285D01*
X100233228Y-74072476D01*
X100271323Y-74148666D01*
X100309419Y-74186761D01*
X100385609Y-74224857D01*
X100652276Y-74224857D01*
X99928466Y-73843904D02*
X99433228Y-73843904D01*
X99699895Y-74148666D01*
X99585609Y-74148666D01*
X99509419Y-74186761D01*
X99471323Y-74224857D01*
X99433228Y-74301047D01*
X99433228Y-74491523D01*
X99471323Y-74567714D01*
X99509419Y-74605809D01*
X99585609Y-74643904D01*
X99814180Y-74643904D01*
X99890371Y-74605809D01*
X99928466Y-74567714D01*
X111599676Y-51758504D02*
X111599676Y-50958504D01*
X111409200Y-50958504D01*
X111294914Y-50996600D01*
X111218723Y-51072790D01*
X111180628Y-51148980D01*
X111142533Y-51301361D01*
X111142533Y-51415647D01*
X111180628Y-51568028D01*
X111218723Y-51644219D01*
X111294914Y-51720409D01*
X111409200Y-51758504D01*
X111599676Y-51758504D01*
X110875866Y-50958504D02*
X110380628Y-50958504D01*
X110647295Y-51263266D01*
X110533009Y-51263266D01*
X110456819Y-51301361D01*
X110418723Y-51339457D01*
X110380628Y-51415647D01*
X110380628Y-51606123D01*
X110418723Y-51682314D01*
X110456819Y-51720409D01*
X110533009Y-51758504D01*
X110761580Y-51758504D01*
X110837771Y-51720409D01*
X110875866Y-51682314D01*
X111561609Y-76764857D02*
X111447323Y-76802952D01*
X111409228Y-76841047D01*
X111371133Y-76917238D01*
X111371133Y-77031523D01*
X111409228Y-77107714D01*
X111447323Y-77145809D01*
X111523514Y-77183904D01*
X111828276Y-77183904D01*
X111828276Y-76383904D01*
X111561609Y-76383904D01*
X111485419Y-76422000D01*
X111447323Y-76460095D01*
X111409228Y-76536285D01*
X111409228Y-76612476D01*
X111447323Y-76688666D01*
X111485419Y-76726761D01*
X111561609Y-76764857D01*
X111828276Y-76764857D01*
X110685419Y-76650571D02*
X110685419Y-77183904D01*
X110875895Y-76345809D02*
X111066371Y-76917238D01*
X110571133Y-76917238D01*
D14*
X99299800Y-52692000D02*
X96759800Y-52692000D01*
X99299800Y-50152000D02*
X96759800Y-50152000D01*
X114539800Y-80632000D02*
X114539800Y-47612000D01*
X96759800Y-47612000D02*
X96759800Y-80632000D01*
X114539800Y-47612000D02*
X96759800Y-47612000D01*
X99299800Y-50152000D02*
X99299800Y-52692000D01*
X96759800Y-80632000D02*
X114539800Y-80632000D01*
D11*
X108629400Y-57344400D02*
X103229400Y-57344400D01*
D10*
X105675400Y-57102400D02*
X105675400Y-56086400D01*
D11*
X103229400Y-55844400D02*
X108629400Y-55844400D01*
D10*
X106183400Y-56086400D02*
X106183400Y-56594400D01*
D11*
X108629400Y-57344400D02*
X108629400Y-55844400D01*
X103229400Y-57344400D02*
X103229400Y-55844400D01*
D10*
X105421400Y-56594400D02*
X105675400Y-56594400D01*
X105421400Y-56594400D02*
X105167400Y-56594400D01*
X106183400Y-57102400D02*
X106183400Y-56086400D01*
X106183400Y-56594400D02*
X106691400Y-56594400D01*
X106437400Y-53080400D02*
X105421400Y-53080400D01*
X105421400Y-53080400D02*
X105421400Y-53334400D01*
X106437400Y-53334400D02*
X106691400Y-53334400D01*
X105167400Y-53334400D02*
X105421400Y-53334400D01*
D11*
X108629400Y-54084400D02*
X103229400Y-54084400D01*
D10*
X105421400Y-53334400D02*
X105421400Y-53588400D01*
D11*
X108629400Y-54084400D02*
X108629400Y-52584400D01*
X103229400Y-54084400D02*
X103229400Y-52584400D01*
D10*
X106437400Y-53588400D02*
X106437400Y-53080400D01*
X105421400Y-53588400D02*
X106437400Y-53588400D01*
D11*
X103229400Y-52584400D02*
X108629400Y-52584400D01*
D10*
X106437400Y-63368400D02*
X106437400Y-62860400D01*
X105167400Y-63114400D02*
X105421400Y-63114400D01*
X106437400Y-63114400D02*
X106691400Y-63114400D01*
D11*
X103229400Y-63864400D02*
X103229400Y-62364400D01*
D10*
X106437400Y-62860400D02*
X105421400Y-62860400D01*
D11*
X108629400Y-63864400D02*
X103229400Y-63864400D01*
D10*
X105421400Y-63368400D02*
X106437400Y-63368400D01*
D11*
X103229400Y-62364400D02*
X108629400Y-62364400D01*
D10*
X105421400Y-62860400D02*
X105421400Y-63114400D01*
D11*
X108629400Y-63864400D02*
X108629400Y-62364400D01*
D10*
X105421400Y-63114400D02*
X105421400Y-63368400D01*
D11*
X103229400Y-60604400D02*
X103229400Y-59104400D01*
D10*
X106437400Y-59854400D02*
X106691400Y-59854400D01*
D11*
X108629400Y-60604400D02*
X108629400Y-59104400D01*
D10*
X106437400Y-60108400D02*
X106437400Y-59600400D01*
X105167400Y-59854400D02*
X105421400Y-59854400D01*
X106437400Y-59600400D02*
X105421400Y-59600400D01*
X105421400Y-59600400D02*
X105421400Y-59854400D01*
X105421400Y-59854400D02*
X105421400Y-60108400D01*
D11*
X108629400Y-60604400D02*
X103229400Y-60604400D01*
D10*
X105421400Y-60108400D02*
X106437400Y-60108400D01*
D11*
X103229400Y-59104400D02*
X108629400Y-59104400D01*
D10*
X106716800Y-72046800D02*
X106462800Y-72046800D01*
X106462800Y-72300800D02*
X106462800Y-72046800D01*
X105446800Y-72300800D02*
X106462800Y-72300800D01*
X105446800Y-71792800D02*
X105446800Y-72300800D01*
D11*
X103254800Y-71296800D02*
X103254800Y-72796800D01*
X108654800Y-71296800D02*
X108654800Y-72796800D01*
D10*
X105446800Y-72046800D02*
X105192800Y-72046800D01*
D11*
X103254800Y-71296800D02*
X108654800Y-71296800D01*
X108654800Y-72796800D02*
X103254800Y-72796800D01*
D10*
X106462800Y-71792800D02*
X105446800Y-71792800D01*
X106462800Y-72046800D02*
X106462800Y-71792800D01*
X106462800Y-68744800D02*
X106462800Y-68490800D01*
X106462800Y-68998800D02*
X106462800Y-68744800D01*
D11*
X103254800Y-67994800D02*
X103254800Y-69494800D01*
X103254800Y-67994800D02*
X108654800Y-67994800D01*
D10*
X106716800Y-68744800D02*
X106462800Y-68744800D01*
X105446800Y-68744800D02*
X105192800Y-68744800D01*
X105446800Y-68490800D02*
X105446800Y-68998800D01*
X105446800Y-68998800D02*
X106462800Y-68998800D01*
D11*
X108654800Y-67994800D02*
X108654800Y-69494800D01*
X108654800Y-69494800D02*
X103254800Y-69494800D01*
D10*
X106462800Y-68490800D02*
X105446800Y-68490800D01*
D15*
X113269800Y-51422000D03*
D16*
X113269800Y-53962000D03*
X113269800Y-56502000D03*
X113269800Y-59042000D03*
X113269800Y-61582000D03*
X113269800Y-64122000D03*
X113269800Y-66662000D03*
X113269800Y-69202000D03*
X113269800Y-71742000D03*
X113269800Y-74282000D03*
X113269800Y-76822000D03*
X113269800Y-79362000D03*
X98029800Y-79362000D03*
X98029800Y-76822000D03*
X98029800Y-74282000D03*
X98029800Y-71742000D03*
X98029800Y-69202000D03*
X98029800Y-66662000D03*
X98029800Y-64122000D03*
X98029800Y-61582000D03*
X98029800Y-59042000D03*
X98029800Y-56502000D03*
X98029800Y-53962000D03*
X98029800Y-51422000D03*
X108189800Y-79362000D03*
%LPC*%
D17*
X112652847Y-118845224D03*
D18*
X108253438Y-121385224D03*
X117052256Y-116305224D03*
D19*
X117415987Y-116095224D03*
X107889707Y-121595224D03*
D20*
X108203142Y-116218110D03*
X107913142Y-115715815D03*
D21*
X108083290Y-118550519D03*
D22*
X106286117Y-118017725D03*
D20*
X108453142Y-116651122D03*
D23*
X115119577Y-112917725D03*
D20*
X112852552Y-114111122D03*
D24*
X109702847Y-113735674D03*
D20*
X112602552Y-113678110D03*
X112312552Y-113175815D03*
D25*
X114682404Y-114740519D03*
D19*
X137765439Y-109621719D03*
X127140255Y-112468729D03*
D18*
X127545944Y-112360025D03*
D17*
X132452847Y-111045224D03*
D18*
X137359750Y-109730423D03*
D20*
X128964119Y-107838921D03*
D26*
X128115269Y-109577873D03*
D27*
X136369674Y-105958136D03*
D20*
X128834710Y-107355958D03*
X128684595Y-106795721D03*
D28*
X126517231Y-108598090D03*
D29*
X135475624Y-107605672D03*
D20*
X133871022Y-106524120D03*
X133591498Y-105480920D03*
D24*
X130925815Y-105346262D03*
D20*
X133741613Y-106041157D03*
D18*
X158332847Y-108245224D03*
X148172847Y-108245224D03*
D17*
X153252847Y-108245224D03*
D19*
X147752847Y-108245224D03*
X158752847Y-108245224D03*
D30*
X148152847Y-104345224D03*
D31*
X149442847Y-105705224D03*
D20*
X150712847Y-103165224D03*
D32*
X158352847Y-104345224D03*
D20*
X150712847Y-104245224D03*
X150712847Y-103745224D03*
D24*
X153252847Y-102345224D03*
D33*
X157062847Y-105705224D03*
D20*
X155792847Y-104245224D03*
X155792847Y-103745224D03*
X155792847Y-103165224D03*
D34*
X121025800Y-108690700D03*
X134775800Y-61180700D03*
X191752500Y-91370700D03*
X191752500Y-72370700D03*
D15*
X113269800Y-51422000D03*
D16*
X113269800Y-53962000D03*
X113269800Y-56502000D03*
X113269800Y-59042000D03*
X113269800Y-61582000D03*
X113269800Y-64122000D03*
X113269800Y-66662000D03*
X113269800Y-69202000D03*
X113269800Y-71742000D03*
X113269800Y-74282000D03*
X113269800Y-76822000D03*
X113269800Y-79362000D03*
X98029800Y-79362000D03*
X98029800Y-76822000D03*
X98029800Y-74282000D03*
X98029800Y-71742000D03*
X98029800Y-69202000D03*
X98029800Y-66662000D03*
X98029800Y-64122000D03*
X98029800Y-61582000D03*
X98029800Y-59042000D03*
X98029800Y-56502000D03*
X98029800Y-53962000D03*
X98029800Y-51422000D03*
X108189800Y-79362000D03*
D18*
X139174847Y-50313202D03*
D17*
X144254847Y-50313202D03*
D18*
X149334847Y-50313202D03*
D19*
X149754847Y-50313202D03*
X138754847Y-50313202D03*
D30*
X139154847Y-46413202D03*
D32*
X149354847Y-46413202D03*
D20*
X141714847Y-45813202D03*
X141714847Y-46313202D03*
D31*
X140444847Y-47773202D03*
D20*
X141714847Y-45233202D03*
D24*
X144254847Y-44413202D03*
D33*
X148064847Y-47773202D03*
D20*
X146794847Y-45813202D03*
X146794847Y-46313202D03*
X146794847Y-45233202D03*
D19*
X149754847Y-69313202D03*
D18*
X149334847Y-69313202D03*
X139174847Y-69313202D03*
D19*
X138754847Y-69313202D03*
D17*
X144254847Y-69313202D03*
D20*
X141714847Y-64813202D03*
D32*
X149354847Y-65413202D03*
D31*
X140444847Y-66773202D03*
D30*
X139154847Y-65413202D03*
D20*
X141714847Y-64233202D03*
X141714847Y-65313202D03*
X146794847Y-64813202D03*
D33*
X148064847Y-66773202D03*
D24*
X144254847Y-63413202D03*
D20*
X146794847Y-65313202D03*
X146794847Y-64233202D03*
D18*
X149334847Y-88313202D03*
D17*
X144254847Y-88313202D03*
D19*
X138754847Y-88313202D03*
D18*
X139174847Y-88313202D03*
D19*
X149754847Y-88313202D03*
D31*
X140444847Y-85773202D03*
D20*
X141714847Y-83813202D03*
X141714847Y-84313202D03*
D30*
X139154847Y-84413202D03*
D20*
X141714847Y-83233202D03*
D32*
X149354847Y-84413202D03*
D24*
X144254847Y-82413202D03*
D20*
X146794847Y-83813202D03*
X146794847Y-83233202D03*
X146794847Y-84313202D03*
D33*
X148064847Y-85773202D03*
D17*
X163254847Y-48060224D03*
D18*
X158174847Y-48060224D03*
D19*
X168754847Y-48060224D03*
D18*
X168334847Y-48060224D03*
D19*
X157754847Y-48060224D03*
D20*
X160714847Y-44060224D03*
D32*
X168354847Y-44160224D03*
D20*
X160714847Y-42980224D03*
X160714847Y-43560224D03*
D31*
X159444847Y-45520224D03*
D30*
X158154847Y-44160224D03*
D20*
X165794847Y-42980224D03*
D33*
X167064847Y-45520224D03*
D24*
X163254847Y-42160224D03*
D20*
X165794847Y-43560224D03*
X165794847Y-44060224D03*
D19*
X157754847Y-67060224D03*
X168754847Y-67060224D03*
D18*
X168334847Y-67060224D03*
D17*
X163254847Y-67060224D03*
D18*
X158174847Y-67060224D03*
D20*
X160714847Y-62560224D03*
X160714847Y-61980224D03*
D30*
X158154847Y-63160224D03*
D20*
X160714847Y-63060224D03*
D31*
X159444847Y-64520224D03*
D32*
X168354847Y-63160224D03*
D20*
X165794847Y-62560224D03*
X165794847Y-63060224D03*
D24*
X163254847Y-61160224D03*
D33*
X167064847Y-64520224D03*
D20*
X165794847Y-61980224D03*
D17*
X163254847Y-86060224D03*
D18*
X158174847Y-86060224D03*
X168334847Y-86060224D03*
D19*
X168754847Y-86060224D03*
X157754847Y-86060224D03*
D32*
X168354847Y-82160224D03*
D20*
X160714847Y-80980224D03*
X160714847Y-81560224D03*
D30*
X158154847Y-82160224D03*
D20*
X160714847Y-82060224D03*
D31*
X159444847Y-83520224D03*
D33*
X167064847Y-83520224D03*
D20*
X165794847Y-80980224D03*
X165794847Y-82060224D03*
X165794847Y-81560224D03*
D24*
X163254847Y-80160224D03*
D18*
X187334847Y-50310662D03*
D19*
X187754847Y-50310662D03*
D17*
X182254847Y-50310662D03*
D19*
X176754847Y-50310662D03*
D18*
X177174847Y-50310662D03*
D20*
X179714847Y-45810662D03*
X179714847Y-46310662D03*
D32*
X187354847Y-46410662D03*
D30*
X177154847Y-46410662D03*
D31*
X178444847Y-47770662D03*
D20*
X179714847Y-45230662D03*
X184794847Y-45810662D03*
D24*
X182254847Y-44410662D03*
D20*
X184794847Y-46310662D03*
D33*
X186064847Y-47770662D03*
D20*
X184794847Y-45230662D03*
D17*
X182254847Y-69310662D03*
D19*
X187754847Y-69310662D03*
D18*
X177174847Y-69310662D03*
X187334847Y-69310662D03*
D19*
X176754847Y-69310662D03*
D20*
X179714847Y-64230662D03*
D32*
X187354847Y-65410662D03*
D20*
X179714847Y-64810662D03*
X179714847Y-65310662D03*
D30*
X177154847Y-65410662D03*
D31*
X178444847Y-66770662D03*
D33*
X186064847Y-66770662D03*
D20*
X184794847Y-64230662D03*
X184794847Y-64810662D03*
D24*
X182254847Y-63410662D03*
D20*
X184794847Y-65310662D03*
D19*
X176754847Y-88310662D03*
D18*
X177174847Y-88310662D03*
D19*
X187754847Y-88310662D03*
D17*
X182254847Y-88310662D03*
D18*
X187334847Y-88310662D03*
D20*
X179714847Y-83230662D03*
D32*
X187354847Y-84410662D03*
D31*
X178444847Y-85770662D03*
D30*
X177154847Y-84410662D03*
D20*
X179714847Y-84310662D03*
X179714847Y-83810662D03*
X184794847Y-84310662D03*
D33*
X186064847Y-85770662D03*
D20*
X184794847Y-83230662D03*
X184794847Y-83810662D03*
D24*
X182254847Y-82410662D03*
D18*
X196174847Y-62773598D03*
D19*
X195754847Y-62773598D03*
X206754847Y-62773598D03*
D18*
X206334847Y-62773598D03*
D17*
X201254847Y-62773598D03*
D20*
X198714847Y-58773598D03*
D31*
X197444847Y-60233598D03*
D32*
X206354847Y-58873598D03*
D20*
X198714847Y-57693598D03*
D30*
X196154847Y-58873598D03*
D20*
X198714847Y-58273598D03*
X203794847Y-57693598D03*
X203794847Y-58773598D03*
D24*
X201254847Y-56873598D03*
D20*
X203794847Y-58273598D03*
D33*
X205064847Y-60233598D03*
D19*
X206754847Y-81773598D03*
D18*
X196174847Y-81773598D03*
D17*
X201254847Y-81773598D03*
D19*
X195754847Y-81773598D03*
D18*
X206334847Y-81773598D03*
D31*
X197444847Y-79233598D03*
D20*
X198714847Y-77273598D03*
X198714847Y-76693598D03*
D32*
X206354847Y-77873598D03*
D20*
X198714847Y-77773598D03*
D30*
X196154847Y-77873598D03*
D20*
X203794847Y-76693598D03*
D24*
X201254847Y-75873598D03*
D20*
X203794847Y-77273598D03*
D33*
X205064847Y-79233598D03*
D20*
X203794847Y-77773598D03*
D19*
X206754847Y-100773598D03*
X195754847Y-100773598D03*
D17*
X201254847Y-100773598D03*
D18*
X196174847Y-100773598D03*
X206334847Y-100773598D03*
D20*
X198714847Y-96773598D03*
X198714847Y-96273598D03*
D32*
X206354847Y-96873598D03*
D31*
X197444847Y-98233598D03*
D30*
X196154847Y-96873598D03*
D20*
X198714847Y-95693598D03*
X203794847Y-96773598D03*
X203794847Y-95693598D03*
D33*
X205064847Y-98233598D03*
D20*
X203794847Y-96273598D03*
D24*
X201254847Y-94873598D03*
D17*
X125254847Y-52810020D03*
D19*
X130754847Y-52810020D03*
D18*
X120174847Y-52810020D03*
X130334847Y-52810020D03*
D19*
X119754847Y-52810020D03*
D30*
X120154847Y-48910020D03*
D20*
X122714847Y-47730020D03*
X122714847Y-48310020D03*
D32*
X130354847Y-48910020D03*
D20*
X122714847Y-48810020D03*
D31*
X121444847Y-50270020D03*
D33*
X129064847Y-50270020D03*
D20*
X127794847Y-47730020D03*
X127794847Y-48310020D03*
D24*
X125254847Y-46910020D03*
D20*
X127794847Y-48810020D03*
D19*
X130754847Y-71810020D03*
D17*
X125254847Y-71810020D03*
D19*
X119754847Y-71810020D03*
D18*
X120174847Y-71810020D03*
X130334847Y-71810020D03*
D20*
X122714847Y-66730020D03*
X122714847Y-67310020D03*
D32*
X130354847Y-67910020D03*
D31*
X121444847Y-69270020D03*
D20*
X122714847Y-67810020D03*
D30*
X120154847Y-67910020D03*
D20*
X127794847Y-67810020D03*
X127794847Y-66730020D03*
D24*
X125254847Y-65910020D03*
D33*
X129064847Y-69270020D03*
D20*
X127794847Y-67310020D03*
D19*
X130754847Y-90810020D03*
X119754847Y-90810020D03*
D17*
X125254847Y-90810020D03*
D18*
X120174847Y-90810020D03*
X130334847Y-90810020D03*
D20*
X122714847Y-86310020D03*
X122714847Y-85730020D03*
D31*
X121444847Y-88270020D03*
D20*
X122714847Y-86810020D03*
D30*
X120154847Y-86910020D03*
D32*
X130354847Y-86910020D03*
D20*
X127794847Y-86310020D03*
D33*
X129064847Y-88270020D03*
D20*
X127794847Y-86810020D03*
X127794847Y-85730020D03*
D24*
X125254847Y-84910020D03*
D35*
X100744400Y-83417000D03*
X103284400Y-83417000D03*
X105824400Y-83417000D03*
X108364400Y-83417000D03*
X110904400Y-83417000D03*
D36*
X98057400Y-83100000D03*
D37*
X179960000Y-99428000D03*
X186460000Y-99428000D03*
D38*
X104154400Y-56594400D03*
X107704400Y-56594400D03*
X104154400Y-53334400D03*
X107704400Y-53334400D03*
X104154400Y-63114400D03*
X107704400Y-63114400D03*
X104154400Y-59854400D03*
X107704400Y-59854400D03*
X107729800Y-72046800D03*
X104179800Y-72046800D03*
X107729800Y-68744800D03*
X104179800Y-68744800D03*
D39*
X168870400Y-99428000D03*
D40*
X171410400Y-99428000D03*
X173950400Y-99428000D03*
X176490400Y-99428000D03*
M02*
