G04 #@! TF.GenerationSoftware,KiCad,Pcbnew,(6.0.2)*
G04 #@! TF.CreationDate,2022-03-08T09:31:39+01:00*
G04 #@! TF.ProjectId,pierce,70696572-6365-42e6-9b69-6361645f7063,v 0.1*
G04 #@! TF.SameCoordinates,Original*
G04 #@! TF.FileFunction,Paste,Top*
G04 #@! TF.FilePolarity,Positive*
%FSLAX46Y46*%
G04 Gerber Fmt 4.6, Leading zero omitted, Abs format (unit mm)*
G04 Created by KiCad (PCBNEW (6.0.2)) date 2022-03-08 09:31:39*
%MOMM*%
%LPD*%
G01*
G04 APERTURE LIST*
%ADD10R,0.698500X1.198880*%
%ADD11R,1.198880X0.698500*%
%ADD12R,2.000000X1.500000*%
%ADD13R,2.000000X3.800000*%
G04 APERTURE END LIST*
D10*
X101252480Y-103573280D03*
X102352300Y-103573280D03*
X103452120Y-103573280D03*
X104551940Y-103573280D03*
X105651760Y-103573280D03*
X106751580Y-103573280D03*
X107851400Y-103573280D03*
X108951220Y-103573280D03*
X110051040Y-103573280D03*
X111150860Y-103573280D03*
X112250680Y-103573280D03*
X113350500Y-103573280D03*
D11*
X115700000Y-102122940D03*
X115700000Y-101023120D03*
X115700000Y-99923300D03*
X115700000Y-98823480D03*
X115700000Y-97723660D03*
X115700000Y-96623840D03*
X115700000Y-95526560D03*
X115700000Y-94426740D03*
X115700000Y-93326920D03*
X115700000Y-92227100D03*
X115700000Y-91127280D03*
X115700000Y-90027460D03*
D10*
X113350500Y-88577120D03*
X112250680Y-88577120D03*
X111150860Y-88577120D03*
X110051040Y-88577120D03*
X108951220Y-88577120D03*
X107851400Y-88577120D03*
X106751580Y-88577120D03*
X105651760Y-88577120D03*
X104551940Y-88577120D03*
X103452120Y-88577120D03*
X102352300Y-88577120D03*
X101252480Y-88577120D03*
D12*
X103109400Y-106043400D03*
X103109400Y-108343400D03*
D13*
X109409400Y-108343400D03*
D12*
X103109400Y-110643400D03*
M02*
