G04 #@! TF.GenerationSoftware,KiCad,Pcbnew,5.1.10*
G04 #@! TF.CreationDate,2021-10-19T19:02:20+02:00*
G04 #@! TF.ProjectId,pierce,70696572-6365-42e6-9b69-6361645f7063,v 0.1*
G04 #@! TF.SameCoordinates,Original*
G04 #@! TF.FileFunction,Profile,NP*
%FSLAX46Y46*%
G04 Gerber Fmt 4.6, Leading zero omitted, Abs format (unit mm)*
G04 Created by KiCad (PCBNEW 5.1.10) date 2021-10-19 19:02:20*
%MOMM*%
%LPD*%
G01*
G04 APERTURE LIST*
G04 #@! TA.AperFunction,Profile*
%ADD10C,0.200000*%
G04 #@! TD*
G04 APERTURE END LIST*
D10*
X80462918Y-101565334D02*
X80462918Y-101565334D01*
X80793118Y-102035234D02*
X80663578Y-101964114D01*
X80561978Y-101862514D02*
X80493398Y-101732974D01*
X80493398Y-101732974D02*
X80462918Y-101565334D01*
X80963297Y-102065714D02*
X80793118Y-102035234D01*
X80663578Y-101964114D02*
X80561978Y-101862514D01*
X80471482Y-85782266D02*
X80462918Y-101565334D01*
X80441002Y-85614626D02*
X80471482Y-85782266D01*
X80372422Y-85485086D02*
X80441002Y-85614626D01*
X80471482Y-85782266D02*
X80471482Y-85782266D01*
X79971103Y-85281886D02*
X80141282Y-85312366D01*
X80141282Y-85312366D02*
X80270822Y-85383486D01*
X80270822Y-85383486D02*
X80372422Y-85485086D01*
X50791486Y-85786497D02*
X50795814Y-94322103D01*
X51291866Y-85286118D02*
X51291866Y-85286118D01*
X50821966Y-85616318D02*
X50893086Y-85486778D01*
X51124226Y-85316598D02*
X51291866Y-85286118D01*
X50893086Y-85486778D02*
X50994686Y-85385178D01*
X50994686Y-85385178D02*
X51124226Y-85316598D01*
X50791486Y-85786497D02*
X50821966Y-85616318D01*
X79971103Y-85281886D02*
X51291866Y-85286118D01*
X50295434Y-94822482D02*
X50295434Y-94822482D01*
X50795814Y-94322103D02*
X50765334Y-94492282D01*
X50765334Y-94492282D02*
X50694214Y-94621822D01*
X50694214Y-94621822D02*
X50592614Y-94723422D01*
X50592614Y-94723422D02*
X50463074Y-94792002D01*
X50463074Y-94792002D02*
X50295434Y-94822482D01*
X144397254Y-97023892D02*
X144448054Y-96871493D01*
X144483614Y-96703853D02*
X144496314Y-96515893D01*
X144448054Y-96871493D02*
X144483614Y-96703853D01*
X51503851Y-38467038D02*
X51574971Y-38334958D01*
X32326186Y-39177477D02*
X32326186Y-39177477D01*
X32526846Y-38778697D02*
X32425246Y-38877757D01*
X51102532Y-38667698D02*
X51272711Y-38637218D01*
X32356666Y-39009837D02*
X32326186Y-39177477D01*
X51574971Y-38334958D02*
X51602911Y-38167318D01*
X51272711Y-38637218D02*
X51402251Y-38566098D01*
X51102532Y-38667698D02*
X32826566Y-38677098D01*
X32656386Y-38707578D02*
X32526846Y-38778697D01*
X32326186Y-39177477D02*
X32326186Y-94337503D01*
X51402251Y-38566098D02*
X51503851Y-38467038D01*
X32425246Y-38877757D02*
X32356666Y-39009837D01*
X51614147Y-26720062D02*
X51602911Y-38167318D01*
X32826566Y-38677098D02*
X32656386Y-38707578D01*
X32356666Y-94507682D02*
X32427786Y-94637222D01*
X32826566Y-94837882D02*
X32826566Y-94837882D01*
X32529386Y-94738822D02*
X32658926Y-94807402D01*
X32427786Y-94637222D02*
X32529386Y-94738822D01*
X32326186Y-94337503D02*
X32356666Y-94507682D01*
X50295434Y-94822482D02*
X32826566Y-94837882D01*
X32658926Y-94807402D02*
X32826566Y-94837882D01*
X117194342Y-106760463D02*
X117034323Y-106740143D01*
X117367062Y-106788403D02*
X117194342Y-106760463D01*
X117532162Y-106826503D02*
X117367062Y-106788403D01*
X117689642Y-106869683D02*
X117532162Y-106826503D01*
X107616012Y-28221200D02*
X107616012Y-26720062D01*
X126114814Y-28719040D02*
X108113851Y-28719040D01*
X144165013Y-45036298D02*
X144018000Y-45008800D01*
X144297093Y-45104877D02*
X144165013Y-45036298D01*
X144396153Y-45206477D02*
X144297093Y-45104877D01*
X144467273Y-45336017D02*
X144396153Y-45206477D01*
X144497753Y-45506197D02*
X144467273Y-45336017D01*
X144497753Y-45506197D02*
X144496314Y-96515893D01*
X88113911Y-23969244D02*
X71113708Y-23969244D01*
X88614291Y-25719303D02*
X88614291Y-24469624D01*
X101166958Y-26219682D02*
X89114670Y-26219682D01*
X117689642Y-106869683D02*
X131984748Y-115132294D01*
X126615193Y-29219419D02*
X126617733Y-44502978D01*
X126282454Y-28749520D02*
X126114814Y-28719040D01*
X126414533Y-28820640D02*
X126282454Y-28749520D01*
X126513593Y-28919700D02*
X126414533Y-28820640D01*
X126584713Y-29049239D02*
X126513593Y-28919700D01*
X126615193Y-29219419D02*
X126584713Y-29049239D01*
X63166056Y-26219682D02*
X52114527Y-26219682D01*
X70615868Y-24469624D02*
X70613328Y-25719303D01*
X144018000Y-45008800D02*
X127118113Y-45003358D01*
X51644627Y-26552422D02*
X51614147Y-26720062D01*
X51713207Y-26422882D02*
X51644627Y-26552422D01*
X51814807Y-26321282D02*
X51713207Y-26422882D01*
X51944347Y-26250162D02*
X51814807Y-26321282D01*
X52114527Y-26219682D02*
X51944347Y-26250162D01*
X70585389Y-25889483D02*
X70615868Y-25719303D01*
X70516809Y-26019022D02*
X70585389Y-25889483D01*
X70415209Y-26120622D02*
X70516809Y-26019022D01*
X70285669Y-26191742D02*
X70415209Y-26120622D01*
X70115489Y-26219682D02*
X70285669Y-26191742D01*
X70615868Y-25719303D02*
X70615868Y-25719303D01*
X70643808Y-24301984D02*
X70615868Y-24469624D01*
X70714928Y-24172444D02*
X70643808Y-24301984D01*
X70813988Y-24070844D02*
X70714928Y-24172444D01*
X70943528Y-23999724D02*
X70813988Y-24070844D01*
X71113708Y-23969244D02*
X70943528Y-23999724D01*
X70615868Y-24469624D02*
X70615868Y-24469624D01*
X88284091Y-23999724D02*
X88113911Y-23969244D01*
X88413631Y-24068304D02*
X88284091Y-23999724D01*
X88515231Y-24169904D02*
X88413631Y-24068304D01*
X88586351Y-24299444D02*
X88515231Y-24169904D01*
X88614291Y-24469624D02*
X88586351Y-24299444D01*
X88113911Y-23969244D02*
X88113911Y-23969244D01*
X88947030Y-26191742D02*
X89114670Y-26219682D01*
X88814951Y-26120622D02*
X88947030Y-26191742D01*
X88715891Y-26021562D02*
X88814951Y-26120622D01*
X88644771Y-25892023D02*
X88715891Y-26021562D01*
X88614291Y-25719303D02*
X88644771Y-25892023D01*
X89114670Y-26219682D02*
X89114670Y-26219682D01*
X107283272Y-26250162D02*
X107115632Y-26219682D01*
X107412812Y-26318742D02*
X107283272Y-26250162D01*
X107514412Y-26420342D02*
X107412812Y-26318742D01*
X107585532Y-26549882D02*
X107514412Y-26420342D01*
X107616012Y-26720062D02*
X107585532Y-26549882D01*
X107946212Y-28691100D02*
X108113851Y-28719040D01*
X107816672Y-28619980D02*
X107946212Y-28691100D01*
X107715072Y-28520920D02*
X107816672Y-28619980D01*
X107643952Y-28391380D02*
X107715072Y-28520920D01*
X107616012Y-28221200D02*
X107643952Y-28391380D01*
X133912606Y-114751295D02*
X144397254Y-97023892D01*
X133910066Y-114756375D02*
X133912606Y-114751295D01*
X133854186Y-114832575D02*
X133910066Y-114756375D01*
X133760206Y-114941795D02*
X133854186Y-114832575D01*
X133656066Y-115038315D02*
X133760206Y-114941795D01*
X133534146Y-115132294D02*
X133656066Y-115038315D01*
X133409686Y-115205954D02*
X133534146Y-115132294D01*
X133264907Y-115271994D02*
X133409686Y-115205954D01*
X133112507Y-115322794D02*
X133264907Y-115271994D01*
X132944867Y-115355814D02*
X133112507Y-115322794D01*
X132756907Y-115368514D02*
X132944867Y-115355814D01*
X132568947Y-115355814D02*
X132756907Y-115368514D01*
X132401307Y-115320254D02*
X132568947Y-115355814D01*
X132248908Y-115269454D02*
X132401307Y-115320254D01*
X132109208Y-115205954D02*
X132248908Y-115269454D01*
X131984748Y-115132294D02*
X132109208Y-115205954D01*
X80963297Y-102065714D02*
X117034323Y-106740143D01*
X126947933Y-44975418D02*
X127118113Y-45003358D01*
X126818393Y-44904298D02*
X126947933Y-44975418D01*
X126716793Y-44805238D02*
X126818393Y-44904298D01*
X126648213Y-44675698D02*
X126716793Y-44805238D01*
X126617733Y-44502978D02*
X126648213Y-44675698D01*
X127118113Y-45003358D02*
X127118113Y-45003358D01*
X107115632Y-26219682D02*
X101166958Y-26219682D01*
X70115489Y-26219682D02*
X63166056Y-26219682D01*
M02*
