M48
; DRILL file {KiCad (6.0.2)} date Tue 08 Mar 2022 09:32:56 AM CET
; FORMAT={-:-/ absolute / metric / decimal}
; #@! TF.CreationDate,2022-03-08T09:32:56+01:00
; #@! TF.GenerationSoftware,Kicad,Pcbnew,(6.0.2)
; #@! TF.FileFunction,Plated,1,2,PTH
FMAT,2
METRIC
; #@! TA.AperFunction,Plated,PTH,ViaDrill
T1C0.400
; #@! TA.AperFunction,Plated,PTH,ComponentDrill
T2C1.000
; #@! TA.AperFunction,Plated,PTH,ComponentDrill
T3C1.200
; #@! TA.AperFunction,Plated,PTH,ComponentDrill
T4C1.500
%
G90
G05
T1
X192.504Y-72.241
X192.506Y-64.543
X192.524Y-65.643
X192.542Y-66.742
X192.547Y-73.341
X194.094Y-77.89
X196.41Y-76.438
X197.09Y-79.16
X198.097Y-79.252
X199.206Y-79.243
X200.289Y-79.26
X201.397Y-79.25
X201.675Y-64.085
X201.861Y-67.842
X201.861Y-68.942
X201.861Y-75.541
X202.505Y-79.241
X202.985Y-104.384
X203.034Y-90.442
X203.614Y-79.232
X204.723Y-79.223
X205.781Y-79.265
X206.834Y-73.341
X206.864Y-79.282
T2
X137.073Y-93.689
X139.613Y-93.689
X142.153Y-93.689
X144.693Y-93.689
T3
X101.971Y-56.442
X101.971Y-75.442
X101.971Y-94.442
X107.071Y-54.442
X107.071Y-73.442
X107.071Y-92.442
X112.171Y-56.442
X112.171Y-75.442
X112.171Y-94.442
X120.971Y-43.994
X120.971Y-62.994
X120.971Y-81.994
X126.071Y-41.994
X126.071Y-60.994
X126.071Y-79.994
X131.171Y-43.994
X131.171Y-62.994
X131.171Y-81.994
X139.971Y-41.744
X139.971Y-60.744
X139.971Y-79.744
X145.071Y-39.744
X145.071Y-58.744
X145.071Y-77.744
X149.973Y-101.929
X150.171Y-41.744
X150.171Y-60.744
X150.171Y-79.744
X155.073Y-99.929
X158.971Y-43.994
X158.971Y-62.994
X158.971Y-81.994
X160.173Y-101.929
X164.071Y-41.994
X164.071Y-60.994
X164.071Y-79.994
X169.171Y-43.994
X169.171Y-62.994
X169.171Y-81.994
X171.956Y-103.542
X177.4Y-102.93
X177.971Y-46.494
X177.971Y-65.494
X177.971Y-84.494
X181.808Y-106.181
X183.071Y-44.494
X183.071Y-63.494
X183.071Y-82.494
X188.171Y-46.494
X188.171Y-65.494
X188.171Y-84.494
X193.206Y-110.501
X198.623Y-111.319
X202.039Y-115.601
T4
X103.261Y-57.802
X103.261Y-76.802
X103.261Y-95.802
X104.531Y-55.262
X104.531Y-55.842
X104.531Y-56.342
X104.531Y-74.262
X104.531Y-74.842
X104.531Y-75.342
X104.531Y-93.262
X104.531Y-93.842
X104.531Y-94.342
X109.611Y-55.262
X109.611Y-55.842
X109.611Y-56.342
X109.611Y-74.262
X109.611Y-74.842
X109.611Y-75.342
X109.611Y-93.262
X109.611Y-93.842
X109.611Y-94.342
X110.881Y-57.802
X110.881Y-76.802
X110.881Y-95.802
X122.261Y-45.354
X122.261Y-64.354
X122.261Y-83.354
X123.531Y-42.814
X123.531Y-43.394
X123.531Y-43.894
X123.531Y-61.814
X123.531Y-62.394
X123.531Y-62.894
X123.531Y-80.814
X123.531Y-81.394
X123.531Y-81.894
X128.611Y-42.814
X128.611Y-43.394
X128.611Y-43.894
X128.611Y-61.814
X128.611Y-62.394
X128.611Y-62.894
X128.611Y-80.814
X128.611Y-81.394
X128.611Y-81.894
X129.881Y-45.354
X129.881Y-64.354
X129.881Y-83.354
X141.261Y-43.104
X141.261Y-62.104
X141.261Y-81.104
X142.531Y-40.564
X142.531Y-41.144
X142.531Y-41.644
X142.531Y-59.564
X142.531Y-60.144
X142.531Y-60.644
X142.531Y-78.564
X142.531Y-79.144
X142.531Y-79.644
X147.611Y-40.564
X147.611Y-41.144
X147.611Y-41.644
X147.611Y-59.564
X147.611Y-60.144
X147.611Y-60.644
X147.611Y-78.564
X147.611Y-79.144
X147.611Y-79.644
X148.881Y-43.104
X148.881Y-62.104
X148.881Y-81.104
X151.263Y-103.289
X152.533Y-100.749
X152.533Y-101.329
X152.533Y-101.829
X157.613Y-100.749
X157.613Y-101.329
X157.613Y-101.829
X158.883Y-103.289
X160.261Y-45.354
X160.261Y-64.354
X160.261Y-83.354
X161.531Y-42.814
X161.531Y-43.394
X161.531Y-43.894
X161.531Y-61.814
X161.531Y-62.394
X161.531Y-62.894
X161.531Y-80.814
X161.531Y-81.394
X161.531Y-81.894
X166.611Y-42.814
X166.611Y-43.394
X166.611Y-43.894
X166.611Y-61.814
X166.611Y-62.394
X166.611Y-62.894
X166.611Y-80.814
X166.611Y-81.394
X166.611Y-81.894
X167.881Y-45.354
X167.881Y-64.354
X167.881Y-83.354
X172.85Y-105.189
X174.454Y-104.107
X174.584Y-103.625
X174.734Y-103.064
X179.261Y-47.854
X179.261Y-66.854
X179.261Y-85.854
X179.361Y-105.422
X179.491Y-104.939
X179.641Y-104.379
X180.21Y-107.161
X180.531Y-45.314
X180.531Y-45.894
X180.531Y-46.394
X180.531Y-64.314
X180.531Y-64.894
X180.531Y-65.394
X180.531Y-83.314
X180.531Y-83.894
X180.531Y-84.394
X185.611Y-45.314
X185.611Y-45.894
X185.611Y-46.394
X185.611Y-64.314
X185.611Y-64.894
X185.611Y-65.394
X185.611Y-83.314
X185.611Y-83.894
X185.611Y-84.394
X186.881Y-47.854
X186.881Y-66.854
X186.881Y-85.854
X193.643Y-112.324
X195.473Y-111.694
X195.723Y-111.261
X196.013Y-110.759
X199.872Y-114.234
X200.122Y-113.801
X200.242Y-116.134
X200.412Y-113.299
T0
M30
