M48
; DRILL file {KiCad 5.1.10} date Tue Oct 19 19:04:42 2021
; FORMAT={-:-/ absolute / metric / decimal}
; #@! TF.CreationDate,2021-10-19T19:04:42+02:00
; #@! TF.GenerationSoftware,Kicad,Pcbnew,5.1.10
; #@! TF.FileFunction,NonPlated,1,2,NPTH
FMAT,2
METRIC
T1C1.000
T2C1.700
T3C1.900
T4C4.000
T5C4.300
%
G90
G05
T1
X36.408Y-51.854
X36.408Y-70.854
X36.408Y-89.854
X46.848Y-51.854
X46.848Y-70.854
X46.848Y-89.854
X55.408Y-39.406
X55.408Y-58.406
X55.408Y-77.406
X65.848Y-39.406
X65.848Y-58.406
X65.848Y-77.406
X74.408Y-37.155
X74.408Y-56.155
X74.408Y-75.155
X84.41Y-97.34
X84.848Y-37.155
X84.848Y-56.155
X84.848Y-75.155
X93.408Y-39.406
X93.408Y-58.406
X93.408Y-77.406
X94.85Y-97.34
X103.848Y-39.406
X103.848Y-58.406
X103.848Y-77.406
X104.301Y-98.646
X112.408Y-41.905
X112.408Y-60.905
X112.408Y-79.905
X114.385Y-101.348
X122.848Y-41.905
X122.848Y-60.905
X122.848Y-79.905
X123.609Y-104.767
X132.651Y-109.987
T2
X36.548Y-47.654
X36.548Y-66.654
X36.548Y-85.654
X46.708Y-47.654
X46.708Y-66.654
X46.708Y-85.654
X55.548Y-35.206
X55.548Y-54.206
X55.548Y-73.206
X65.708Y-35.206
X65.708Y-54.206
X65.708Y-73.206
X74.548Y-32.955
X74.548Y-51.955
X74.548Y-70.955
X84.55Y-93.14
X84.708Y-32.955
X84.708Y-51.955
X84.708Y-70.955
X93.548Y-35.206
X93.548Y-54.206
X93.548Y-73.206
X94.71Y-93.14
X103.708Y-35.206
X103.708Y-54.206
X103.708Y-73.206
X105.523Y-94.625
X112.548Y-37.705
X112.548Y-56.705
X112.548Y-75.705
X115.337Y-97.255
X122.708Y-37.705
X122.708Y-56.705
X122.708Y-75.705
X125.831Y-101.2
X134.629Y-106.28
T3
X36.128Y-47.654
X36.128Y-66.654
X36.128Y-85.654
X47.128Y-47.654
X47.128Y-66.654
X47.128Y-85.654
X55.128Y-35.206
X55.128Y-54.206
X55.128Y-73.206
X66.128Y-35.206
X66.128Y-54.206
X66.128Y-73.206
X74.128Y-32.955
X74.128Y-51.955
X74.128Y-70.955
X84.13Y-93.14
X85.128Y-32.955
X85.128Y-51.955
X85.128Y-70.955
X93.128Y-35.206
X93.128Y-54.206
X93.128Y-73.206
X95.13Y-93.14
X104.128Y-35.206
X104.128Y-54.206
X104.128Y-73.206
X105.117Y-94.516
X112.128Y-37.705
X112.128Y-56.705
X112.128Y-75.705
X115.743Y-97.364
X123.128Y-37.705
X123.128Y-56.705
X123.128Y-75.705
X125.467Y-100.99
X134.993Y-106.49
T4
X41.628Y-47.654
X41.628Y-66.654
X41.628Y-85.654
X60.628Y-35.206
X60.628Y-54.206
X60.628Y-73.206
X79.628Y-32.955
X79.628Y-51.955
X79.628Y-70.955
X89.63Y-93.14
X98.628Y-35.206
X98.628Y-54.206
X98.628Y-73.206
X110.43Y-95.94
X117.628Y-37.705
X117.628Y-56.705
X117.628Y-75.705
X130.23Y-103.74
T5
X51.132Y-57.266
X51.132Y-76.266
X108.108Y-46.076
X121.858Y-93.586
T0
M30
