M48
; DRILL file {KiCad (6.0.2)} date Tue 08 Mar 2022 09:32:56 AM CET
; FORMAT={-:-/ absolute / metric / decimal}
; #@! TF.CreationDate,2022-03-08T09:32:56+01:00
; #@! TF.GenerationSoftware,Kicad,Pcbnew,(6.0.2)
; #@! TF.FileFunction,NonPlated,1,2,NPTH
FMAT,2
METRIC
; #@! TA.AperFunction,NonPlated,NPTH,ComponentDrill
T1C1.700
; #@! TA.AperFunction,NonPlated,NPTH,ComponentDrill
T2C1.900
; #@! TA.AperFunction,NonPlated,NPTH,ComponentDrill
T3C4.000
; #@! TA.AperFunction,NonPlated,NPTH,ComponentDrill
T4C4.300
%
G90
G05
T1
X101.991Y-60.342
X101.991Y-79.342
X101.991Y-98.342
X112.151Y-60.342
X112.151Y-79.342
X112.151Y-98.342
X120.991Y-47.894
X120.991Y-66.894
X120.991Y-85.894
X131.151Y-47.894
X131.151Y-66.894
X131.151Y-85.894
X139.991Y-45.644
X139.991Y-64.644
X139.991Y-83.644
X149.993Y-105.829
X150.151Y-45.644
X150.151Y-64.644
X150.151Y-83.644
X158.991Y-47.894
X158.991Y-66.894
X158.991Y-85.894
X160.153Y-105.829
X169.151Y-47.894
X169.151Y-66.894
X169.151Y-85.894
X170.966Y-107.314
X177.991Y-50.394
X177.991Y-69.394
X177.991Y-88.394
X180.78Y-109.943
X188.151Y-50.394
X188.151Y-69.394
X188.151Y-88.394
X191.273Y-113.889
X200.072Y-118.969
T2
X101.571Y-60.342
X101.571Y-79.342
X101.571Y-98.342
X112.571Y-60.342
X112.571Y-79.342
X112.571Y-98.342
X120.571Y-47.894
X120.571Y-66.894
X120.571Y-85.894
X131.571Y-47.894
X131.571Y-66.894
X131.571Y-85.894
X139.571Y-45.644
X139.571Y-64.644
X139.571Y-83.644
X149.573Y-105.829
X150.571Y-45.644
X150.571Y-64.644
X150.571Y-83.644
X158.571Y-47.894
X158.571Y-66.894
X158.571Y-85.894
X160.573Y-105.829
X169.571Y-47.894
X169.571Y-66.894
X169.571Y-85.894
X170.56Y-107.205
X177.571Y-50.394
X177.571Y-69.394
X177.571Y-88.394
X181.185Y-110.052
X188.571Y-50.394
X188.571Y-69.394
X188.571Y-88.394
X190.909Y-113.679
X200.436Y-119.179
T3
X107.071Y-60.342
X107.071Y-79.342
X107.071Y-98.342
X126.071Y-47.894
X126.071Y-66.894
X126.071Y-85.894
X145.071Y-45.644
X145.071Y-64.644
X145.071Y-83.644
X155.073Y-105.829
X164.071Y-47.894
X164.071Y-66.894
X164.071Y-85.894
X175.873Y-108.629
X183.071Y-50.394
X183.071Y-69.394
X183.071Y-88.394
X195.673Y-116.429
T4
X116.574Y-69.954
X116.574Y-88.954
X173.551Y-58.764
X187.301Y-106.274
T0
M30
