G04 #@! TF.GenerationSoftware,KiCad,Pcbnew,(6.0.2)*
G04 #@! TF.CreationDate,2022-03-08T09:32:50+01:00*
G04 #@! TF.ProjectId,pierce,70696572-6365-42e6-9b69-6361645f7063,v 0.1*
G04 #@! TF.SameCoordinates,Original*
G04 #@! TF.FileFunction,Legend,Top*
G04 #@! TF.FilePolarity,Positive*
%FSLAX46Y46*%
G04 Gerber Fmt 4.6, Leading zero omitted, Abs format (unit mm)*
G04 Created by KiCad (PCBNEW (6.0.2)) date 2022-03-08 09:32:50*
%MOMM*%
%LPD*%
G01*
G04 APERTURE LIST*
G04 Aperture macros list*
%AMHorizOval*
0 Thick line with rounded ends*
0 $1 width*
0 $2 $3 position (X,Y) of the first rounded end (center of the circle)*
0 $4 $5 position (X,Y) of the second rounded end (center of the circle)*
0 Add line between two ends*
20,1,$1,$2,$3,$4,$5,0*
0 Add two circle primitives to create the rounded ends*
1,1,$1,$2,$3*
1,1,$1,$4,$5*%
G04 Aperture macros list end*
%ADD10C,0.187500*%
%ADD11C,0.300000*%
%ADD12C,0.100000*%
%ADD13C,4.000000*%
%ADD14C,1.900000*%
%ADD15C,1.700000*%
%ADD16HorizOval,1.250000X0.082483X-0.467784X-0.082483X0.467784X0*%
%ADD17HorizOval,1.250000X0.446354X0.162460X-0.446354X-0.162460X0*%
%ADD18C,2.400000*%
%ADD19HorizOval,1.550000X0.587308X0.213763X-0.587308X-0.213763X0*%
%ADD20HorizOval,1.550000X0.108530X-0.615505X-0.108530X0.615505X0*%
%ADD21C,2.200000*%
%ADD22HorizOval,1.250000X0.305324X-0.363871X-0.305324X0.363871X0*%
%ADD23HorizOval,1.250000X0.305324X0.363871X-0.305324X-0.363871X0*%
%ADD24HorizOval,1.550000X0.401742X0.478778X-0.401742X-0.478778X0*%
%ADD25HorizOval,1.550000X0.401742X-0.478778X-0.401742X0.478778X0*%
%ADD26HorizOval,1.550000X0.511970X0.358485X-0.511970X-0.358485X0*%
%ADD27HorizOval,1.250000X0.389097X0.272449X-0.389097X-0.272449X0*%
%ADD28HorizOval,1.250000X0.200744X-0.430496X-0.200744X0.430496X0*%
%ADD29HorizOval,1.550000X0.264136X-0.566442X-0.264136X0.566442X0*%
%ADD30C,4.300000*%
%ADD31R,1.198880X0.698500*%
%ADD32R,0.698500X1.198880*%
%ADD33R,5.080000X1.270000*%
%ADD34R,3.960000X3.960000*%
%ADD35O,1.700000X1.700000*%
%ADD36R,1.700000X1.700000*%
G04 APERTURE END LIST*
D10*
X143585457Y-91614685D02*
X144049742Y-91614685D01*
X143799742Y-91900400D01*
X143906885Y-91900400D01*
X143978314Y-91936114D01*
X144014028Y-91971828D01*
X144049742Y-92043257D01*
X144049742Y-92221828D01*
X144014028Y-92293257D01*
X143978314Y-92328971D01*
X143906885Y-92364685D01*
X143692600Y-92364685D01*
X143621171Y-92328971D01*
X143585457Y-92293257D01*
X144371171Y-92293257D02*
X144406885Y-92328971D01*
X144371171Y-92364685D01*
X144335457Y-92328971D01*
X144371171Y-92293257D01*
X144371171Y-92364685D01*
X144656885Y-91614685D02*
X145121171Y-91614685D01*
X144871171Y-91900400D01*
X144978314Y-91900400D01*
X145049742Y-91936114D01*
X145085457Y-91971828D01*
X145121171Y-92043257D01*
X145121171Y-92221828D01*
X145085457Y-92293257D01*
X145049742Y-92328971D01*
X144978314Y-92364685D01*
X144764028Y-92364685D01*
X144692600Y-92328971D01*
X144656885Y-92293257D01*
X145335457Y-91614685D02*
X145585457Y-92364685D01*
X145835457Y-91614685D01*
X141384743Y-92339285D02*
X141384743Y-91589285D01*
X141563315Y-91589285D01*
X141670458Y-91625000D01*
X141741886Y-91696428D01*
X141777601Y-91767857D01*
X141813315Y-91910714D01*
X141813315Y-92017857D01*
X141777601Y-92160714D01*
X141741886Y-92232142D01*
X141670458Y-92303571D01*
X141563315Y-92339285D01*
X141384743Y-92339285D01*
X142134743Y-92339285D02*
X142134743Y-91589285D01*
X142634743Y-91589285D02*
X142777601Y-91589285D01*
X142849029Y-91625000D01*
X142920458Y-91696428D01*
X142956172Y-91839285D01*
X142956172Y-92089285D01*
X142920458Y-92232142D01*
X142849029Y-92303571D01*
X142777601Y-92339285D01*
X142634743Y-92339285D01*
X142563315Y-92303571D01*
X142491886Y-92232142D01*
X142456172Y-92089285D01*
X142456172Y-91839285D01*
X142491886Y-91696428D01*
X142563315Y-91625000D01*
X142634743Y-91589285D01*
X136450371Y-91548800D02*
X136378942Y-91513085D01*
X136271800Y-91513085D01*
X136164657Y-91548800D01*
X136093228Y-91620228D01*
X136057514Y-91691657D01*
X136021800Y-91834514D01*
X136021800Y-91941657D01*
X136057514Y-92084514D01*
X136093228Y-92155942D01*
X136164657Y-92227371D01*
X136271800Y-92263085D01*
X136343228Y-92263085D01*
X136450371Y-92227371D01*
X136486085Y-92191657D01*
X136486085Y-91941657D01*
X136343228Y-91941657D01*
X136807514Y-92263085D02*
X136807514Y-91513085D01*
X137236085Y-92263085D01*
X137236085Y-91513085D01*
X137593228Y-92263085D02*
X137593228Y-91513085D01*
X137771800Y-91513085D01*
X137878942Y-91548800D01*
X137950371Y-91620228D01*
X137986085Y-91691657D01*
X138021800Y-91834514D01*
X138021800Y-91941657D01*
X137986085Y-92084514D01*
X137950371Y-92155942D01*
X137878942Y-92227371D01*
X137771800Y-92263085D01*
X137593228Y-92263085D01*
X139089972Y-92217057D02*
X139054258Y-92252771D01*
X138947115Y-92288485D01*
X138875686Y-92288485D01*
X138768543Y-92252771D01*
X138697115Y-92181342D01*
X138661401Y-92109914D01*
X138625686Y-91967057D01*
X138625686Y-91859914D01*
X138661401Y-91717057D01*
X138697115Y-91645628D01*
X138768543Y-91574200D01*
X138875686Y-91538485D01*
X138947115Y-91538485D01*
X139054258Y-91574200D01*
X139089972Y-91609914D01*
X139768543Y-92288485D02*
X139411401Y-92288485D01*
X139411401Y-91538485D01*
X140018543Y-92288485D02*
X140018543Y-91538485D01*
X140447115Y-92288485D02*
X140125686Y-91859914D01*
X140447115Y-91538485D02*
X140018543Y-91967057D01*
D11*
X195912906Y-68575171D02*
X196100406Y-67075171D01*
X196028977Y-67646600D02*
X196180763Y-67575171D01*
X196466477Y-67575171D01*
X196600406Y-67646600D01*
X196662906Y-67718028D01*
X196716477Y-67860885D01*
X196662906Y-68289457D01*
X196573620Y-68432314D01*
X196493263Y-68503742D01*
X196341477Y-68575171D01*
X196055763Y-68575171D01*
X195921834Y-68503742D01*
X197252192Y-67575171D02*
X197484334Y-68575171D01*
X197966477Y-67575171D02*
X197484334Y-68575171D01*
X197296834Y-68932314D01*
X197216477Y-69003742D01*
X197064692Y-69075171D01*
X200198620Y-68575171D02*
X200386120Y-67075171D01*
X200207549Y-68503742D02*
X200055763Y-68575171D01*
X199770049Y-68575171D01*
X199636120Y-68503742D01*
X199573620Y-68432314D01*
X199520049Y-68289457D01*
X199573620Y-67860885D01*
X199662906Y-67718028D01*
X199743263Y-67646600D01*
X199895049Y-67575171D01*
X200180763Y-67575171D01*
X200314692Y-67646600D01*
X201680763Y-67575171D02*
X201555763Y-68575171D01*
X201037906Y-67575171D02*
X200939692Y-68360885D01*
X200993263Y-68503742D01*
X201127192Y-68575171D01*
X201341477Y-68575171D01*
X201493263Y-68503742D01*
X201573620Y-68432314D01*
X202270049Y-68575171D02*
X202395049Y-67575171D01*
X202359334Y-67860885D02*
X202448620Y-67718028D01*
X202528977Y-67646600D01*
X202680763Y-67575171D01*
X202823620Y-67575171D01*
X203198620Y-68575171D02*
X203386120Y-67075171D01*
X203412906Y-68003742D02*
X203770049Y-68575171D01*
X203895049Y-67575171D02*
X203252192Y-68146600D01*
X204993263Y-68503742D02*
X204841477Y-68575171D01*
X204555763Y-68575171D01*
X204421834Y-68503742D01*
X204368263Y-68360885D01*
X204439692Y-67789457D01*
X204528977Y-67646600D01*
X204680763Y-67575171D01*
X204966477Y-67575171D01*
X205100406Y-67646600D01*
X205153977Y-67789457D01*
X205136120Y-67932314D01*
X204403977Y-68075171D01*
X205823620Y-67575171D02*
X205698620Y-68575171D01*
X205805763Y-67718028D02*
X205886120Y-67646600D01*
X206037906Y-67575171D01*
X206252192Y-67575171D01*
X206386120Y-67646600D01*
X206439692Y-67789457D01*
X206341477Y-68575171D01*
X195840628Y-64882771D02*
X195840628Y-66382771D01*
X195840628Y-64954200D02*
X195983485Y-64882771D01*
X196269200Y-64882771D01*
X196412057Y-64954200D01*
X196483485Y-65025628D01*
X196554914Y-65168485D01*
X196554914Y-65597057D01*
X196483485Y-65739914D01*
X196412057Y-65811342D01*
X196269200Y-65882771D01*
X195983485Y-65882771D01*
X195840628Y-65811342D01*
X197197771Y-65882771D02*
X197197771Y-64882771D01*
X197197771Y-64382771D02*
X197126342Y-64454200D01*
X197197771Y-64525628D01*
X197269200Y-64454200D01*
X197197771Y-64382771D01*
X197197771Y-64525628D01*
X198483485Y-65811342D02*
X198340628Y-65882771D01*
X198054914Y-65882771D01*
X197912057Y-65811342D01*
X197840628Y-65668485D01*
X197840628Y-65097057D01*
X197912057Y-64954200D01*
X198054914Y-64882771D01*
X198340628Y-64882771D01*
X198483485Y-64954200D01*
X198554914Y-65097057D01*
X198554914Y-65239914D01*
X197840628Y-65382771D01*
X199197771Y-65882771D02*
X199197771Y-64882771D01*
X199197771Y-65168485D02*
X199269200Y-65025628D01*
X199340628Y-64954200D01*
X199483485Y-64882771D01*
X199626342Y-64882771D01*
X200769200Y-65811342D02*
X200626342Y-65882771D01*
X200340628Y-65882771D01*
X200197771Y-65811342D01*
X200126342Y-65739914D01*
X200054914Y-65597057D01*
X200054914Y-65168485D01*
X200126342Y-65025628D01*
X200197771Y-64954200D01*
X200340628Y-64882771D01*
X200626342Y-64882771D01*
X200769200Y-64954200D01*
X201983485Y-65811342D02*
X201840628Y-65882771D01*
X201554914Y-65882771D01*
X201412057Y-65811342D01*
X201340628Y-65668485D01*
X201340628Y-65097057D01*
X201412057Y-64954200D01*
X201554914Y-64882771D01*
X201840628Y-64882771D01*
X201983485Y-64954200D01*
X202054914Y-65097057D01*
X202054914Y-65239914D01*
X201340628Y-65382771D01*
X203769200Y-64525628D02*
X203840628Y-64454200D01*
X203983485Y-64382771D01*
X204340628Y-64382771D01*
X204483485Y-64454200D01*
X204554914Y-64525628D01*
X204626342Y-64668485D01*
X204626342Y-64811342D01*
X204554914Y-65025628D01*
X203697771Y-65882771D01*
X204626342Y-65882771D01*
X205269200Y-65739914D02*
X205340628Y-65811342D01*
X205269200Y-65882771D01*
X205197771Y-65811342D01*
X205269200Y-65739914D01*
X205269200Y-65882771D01*
X206269200Y-64382771D02*
X206412057Y-64382771D01*
X206554914Y-64454200D01*
X206626342Y-64525628D01*
X206697771Y-64668485D01*
X206769200Y-64954200D01*
X206769200Y-65311342D01*
X206697771Y-65597057D01*
X206626342Y-65739914D01*
X206554914Y-65811342D01*
X206412057Y-65882771D01*
X206269200Y-65882771D01*
X206126342Y-65811342D01*
X206054914Y-65739914D01*
X205983485Y-65597057D01*
X205912057Y-65311342D01*
X205912057Y-64954200D01*
X205983485Y-64668485D01*
X206054914Y-64525628D01*
X206126342Y-64454200D01*
X206269200Y-64382771D01*
D12*
X208856080Y-77890400D02*
X208856080Y-57890440D01*
X193859920Y-57890440D02*
X193859920Y-77890400D01*
X193859920Y-77890400D02*
X208856080Y-77890400D01*
X208856080Y-57890440D02*
X193859920Y-57890440D01*
X201995800Y-108168601D02*
X202625800Y-108168601D01*
X191455800Y-88688601D02*
X191455800Y-106088601D01*
X201995800Y-86608601D02*
X202625800Y-86608601D01*
X193535800Y-108168601D02*
X195995800Y-108168601D01*
X193535800Y-86608601D02*
X195995800Y-86608601D01*
X191455800Y-88688601D02*
X193535800Y-86608601D01*
X191455800Y-106088601D02*
X193535800Y-108168601D01*
X202625800Y-108168601D02*
X206575800Y-106728601D01*
X202625800Y-86608601D02*
X206575800Y-88048601D01*
X207545800Y-91388601D02*
G75*
G03*
X206583969Y-88063358I-1700001J1309999D01*
G01*
X206575800Y-106728601D02*
G75*
G03*
X207562330Y-103391955I-730001J2030000D01*
G01*
X207545800Y-91388601D02*
G75*
G03*
X207549336Y-103393201I7810002J-6000000D01*
G01*
D13*
X195672601Y-116428600D03*
D14*
X190909461Y-113678600D03*
D15*
X200072010Y-118968600D03*
D14*
X200435741Y-119178600D03*
D15*
X191273192Y-113888600D03*
D16*
X202039331Y-115601101D03*
D17*
X193205871Y-110501101D03*
D18*
X196012896Y-110759191D03*
X195722896Y-111261486D03*
X195472896Y-111694498D03*
D19*
X193643044Y-112323895D03*
D20*
X200242158Y-116133895D03*
D18*
X200412306Y-113299191D03*
X199872306Y-114234498D03*
X200122306Y-113801486D03*
D21*
X198622601Y-111319050D03*
D14*
X139570991Y-45643744D03*
D13*
X145070991Y-45643744D03*
D15*
X139990991Y-45643744D03*
X150150991Y-45643744D03*
D14*
X150570991Y-45643744D03*
D18*
X142530991Y-41143744D03*
D22*
X150170991Y-41743744D03*
D18*
X142530991Y-41643744D03*
D23*
X139970991Y-41743744D03*
D24*
X141260991Y-43103744D03*
D18*
X142530991Y-40563744D03*
D21*
X145070991Y-39743744D03*
D18*
X147610991Y-41143744D03*
X147610991Y-40563744D03*
X147610991Y-41643744D03*
D25*
X148880991Y-43103744D03*
D15*
X139990991Y-83643744D03*
D14*
X150570991Y-83643744D03*
X139570991Y-83643744D03*
D15*
X150150991Y-83643744D03*
D13*
X145070991Y-83643744D03*
D24*
X141260991Y-81103744D03*
D18*
X142530991Y-79143744D03*
D22*
X150170991Y-79743744D03*
D18*
X142530991Y-78563744D03*
X142530991Y-79643744D03*
D23*
X139970991Y-79743744D03*
D21*
X145070991Y-77743744D03*
D18*
X147610991Y-79143744D03*
D25*
X148880991Y-81103744D03*
D18*
X147610991Y-79643744D03*
X147610991Y-78563744D03*
D14*
X150570991Y-64643744D03*
D15*
X139990991Y-64643744D03*
D13*
X145070991Y-64643744D03*
D14*
X139570991Y-64643744D03*
D15*
X150150991Y-64643744D03*
D18*
X142530991Y-60143744D03*
D22*
X150170991Y-60743744D03*
D18*
X142530991Y-59563744D03*
D24*
X141260991Y-62103744D03*
D18*
X142530991Y-60643744D03*
D23*
X139970991Y-60743744D03*
D18*
X147610991Y-59563744D03*
X147610991Y-60643744D03*
D25*
X148880991Y-62103744D03*
D21*
X145070991Y-58743744D03*
D18*
X147610991Y-60143744D03*
D14*
X177570992Y-69393540D03*
D13*
X183070992Y-69393540D03*
D15*
X188150992Y-69393540D03*
X177990992Y-69393540D03*
D14*
X188570992Y-69393540D03*
D18*
X180530992Y-65393540D03*
D22*
X188170992Y-65493540D03*
D24*
X179260992Y-66853540D03*
D18*
X180530992Y-64893540D03*
D23*
X177970992Y-65493540D03*
D18*
X180530992Y-64313540D03*
X185610992Y-64313540D03*
X185610992Y-65393540D03*
D25*
X186880992Y-66853540D03*
D18*
X185610992Y-64893540D03*
D21*
X183070992Y-63493540D03*
D15*
X188150992Y-88393540D03*
D14*
X177570992Y-88393540D03*
D13*
X183070992Y-88393540D03*
D14*
X188570992Y-88393540D03*
D15*
X177990992Y-88393540D03*
D18*
X180530992Y-83893540D03*
X180530992Y-83313540D03*
D22*
X188170992Y-84493540D03*
D18*
X180530992Y-84393540D03*
D24*
X179260992Y-85853540D03*
D23*
X177970992Y-84493540D03*
D18*
X185610992Y-83893540D03*
X185610992Y-83313540D03*
D21*
X183070992Y-82493540D03*
D25*
X186880992Y-85853540D03*
D18*
X185610992Y-84393540D03*
D14*
X169570991Y-66894182D03*
D13*
X164070991Y-66894182D03*
D14*
X158570991Y-66894182D03*
D15*
X169150991Y-66894182D03*
X158990991Y-66894182D03*
D23*
X158970991Y-62994182D03*
D18*
X161530991Y-62394182D03*
X161530991Y-62894182D03*
D24*
X160260991Y-64354182D03*
D18*
X161530991Y-61814182D03*
D22*
X169170991Y-62994182D03*
D18*
X166610991Y-62894182D03*
D21*
X164070991Y-60994182D03*
D18*
X166610991Y-61814182D03*
D25*
X167880991Y-64354182D03*
D18*
X166610991Y-62394182D03*
D14*
X169570991Y-47894182D03*
D15*
X158990991Y-47894182D03*
D13*
X164070991Y-47894182D03*
D15*
X169150991Y-47894182D03*
D14*
X158570991Y-47894182D03*
D18*
X161530991Y-43394182D03*
D24*
X160260991Y-45354182D03*
D23*
X158970991Y-43994182D03*
D22*
X169170991Y-43994182D03*
D18*
X161530991Y-43894182D03*
X161530991Y-42814182D03*
X166610991Y-42814182D03*
X166610991Y-43394182D03*
D25*
X167880991Y-45354182D03*
D18*
X166610991Y-43894182D03*
D21*
X164070991Y-41994182D03*
D15*
X177990992Y-50393540D03*
D14*
X177570992Y-50393540D03*
D15*
X188150992Y-50393540D03*
D13*
X183070992Y-50393540D03*
D14*
X188570992Y-50393540D03*
D18*
X180530992Y-45893540D03*
X180530992Y-45313540D03*
D24*
X179260992Y-47853540D03*
D23*
X177970992Y-46493540D03*
D22*
X188170992Y-46493540D03*
D18*
X180530992Y-46393540D03*
X185610992Y-45313540D03*
D25*
X186880992Y-47853540D03*
D18*
X185610992Y-46393540D03*
X185610992Y-45893540D03*
D21*
X183070992Y-44493540D03*
D13*
X126070991Y-66894182D03*
D15*
X120990991Y-66894182D03*
X131150991Y-66894182D03*
D14*
X120570991Y-66894182D03*
X131570991Y-66894182D03*
D18*
X123530991Y-61814182D03*
X123530991Y-62894182D03*
D23*
X120970991Y-62994182D03*
D24*
X122260991Y-64354182D03*
D18*
X123530991Y-62394182D03*
D22*
X131170991Y-62994182D03*
D18*
X128610991Y-62394182D03*
D21*
X126070991Y-60994182D03*
D18*
X128610991Y-62894182D03*
X128610991Y-61814182D03*
D25*
X129880991Y-64354182D03*
D13*
X126070991Y-85894182D03*
D15*
X131150991Y-85894182D03*
D14*
X120570991Y-85894182D03*
X131570991Y-85894182D03*
D15*
X120990991Y-85894182D03*
D23*
X120970991Y-81994182D03*
D18*
X123530991Y-81394182D03*
X123530991Y-81894182D03*
D22*
X131170991Y-81994182D03*
D18*
X123530991Y-80814182D03*
D24*
X122260991Y-83354182D03*
D18*
X128610991Y-80814182D03*
X128610991Y-81394182D03*
X128610991Y-81894182D03*
D25*
X129880991Y-83354182D03*
D21*
X126070991Y-79994182D03*
D15*
X112150992Y-60342198D03*
D13*
X107070992Y-60342198D03*
D15*
X101990992Y-60342198D03*
D14*
X112570992Y-60342198D03*
X101570992Y-60342198D03*
D24*
X103260992Y-57802198D03*
D18*
X104530992Y-55262198D03*
D23*
X101970992Y-56442198D03*
D18*
X104530992Y-55842198D03*
X104530992Y-56342198D03*
D22*
X112170992Y-56442198D03*
D18*
X109610992Y-56342198D03*
X109610992Y-55842198D03*
D21*
X107070992Y-54442198D03*
D25*
X110880992Y-57802198D03*
D18*
X109610992Y-55262198D03*
D14*
X112570992Y-98342198D03*
X101570992Y-98342198D03*
D13*
X107070992Y-98342198D03*
D15*
X112150992Y-98342198D03*
X101990992Y-98342198D03*
D22*
X112170992Y-94442198D03*
D18*
X104530992Y-93262198D03*
X104530992Y-93842198D03*
D23*
X101970992Y-94442198D03*
D24*
X103260992Y-95802198D03*
D18*
X104530992Y-94342198D03*
X109610992Y-93262198D03*
D21*
X107070992Y-92442198D03*
D18*
X109610992Y-94342198D03*
X109610992Y-93842198D03*
D25*
X110880992Y-95802198D03*
D14*
X131570991Y-47894182D03*
D15*
X120990991Y-47894182D03*
D14*
X120570991Y-47894182D03*
D15*
X131150991Y-47894182D03*
D13*
X126070991Y-47894182D03*
D23*
X120970991Y-43994182D03*
D18*
X123530991Y-43394182D03*
D22*
X131170991Y-43994182D03*
D18*
X123530991Y-42814182D03*
D24*
X122260991Y-45354182D03*
D18*
X123530991Y-43894182D03*
X128610991Y-43894182D03*
X128610991Y-43394182D03*
D25*
X129880991Y-45354182D03*
D18*
X128610991Y-42814182D03*
D21*
X126070991Y-41994182D03*
D15*
X158990991Y-85894182D03*
D14*
X169570991Y-85894182D03*
X158570991Y-85894182D03*
D15*
X169150991Y-85894182D03*
D13*
X164070991Y-85894182D03*
D23*
X158970991Y-81994182D03*
D18*
X161530991Y-80814182D03*
X161530991Y-81894182D03*
D22*
X169170991Y-81994182D03*
D18*
X161530991Y-81394182D03*
D24*
X160260991Y-83354182D03*
D25*
X167880991Y-83354182D03*
D18*
X166610991Y-81894182D03*
D21*
X164070991Y-79994182D03*
D18*
X166610991Y-80814182D03*
X166610991Y-81394182D03*
D14*
X112570992Y-79342198D03*
D15*
X112150992Y-79342198D03*
D14*
X101570992Y-79342198D03*
D15*
X101990992Y-79342198D03*
D13*
X107070992Y-79342198D03*
D18*
X104530992Y-74842198D03*
D23*
X101970992Y-75442198D03*
D18*
X104530992Y-74262198D03*
D22*
X112170992Y-75442198D03*
D24*
X103260992Y-76802198D03*
D18*
X104530992Y-75342198D03*
D25*
X110880992Y-76802198D03*
D18*
X109610992Y-75342198D03*
D21*
X107070992Y-73442198D03*
D18*
X109610992Y-74842198D03*
X109610992Y-74262198D03*
D15*
X149992600Y-105828600D03*
X160152600Y-105828600D03*
D14*
X160572600Y-105828600D03*
X149572600Y-105828600D03*
D13*
X155072600Y-105828600D03*
D18*
X152532600Y-101328600D03*
D23*
X149972600Y-101928600D03*
D24*
X151262600Y-103288600D03*
D18*
X152532600Y-100748600D03*
D22*
X160172600Y-101928600D03*
D18*
X152532600Y-101828600D03*
D25*
X158882600Y-103288600D03*
D21*
X155072600Y-99928600D03*
D18*
X157612600Y-101328600D03*
X157612600Y-100748600D03*
X157612600Y-101828600D03*
D15*
X170965698Y-107313800D03*
D14*
X170560009Y-107205096D03*
D15*
X180779504Y-109943402D03*
D13*
X175872601Y-108628601D03*
D14*
X181185193Y-110052106D03*
D26*
X172849824Y-105189049D03*
D18*
X174454426Y-104107497D03*
D27*
X171955774Y-103541513D03*
D18*
X174733950Y-103064297D03*
D28*
X181808217Y-106181467D03*
D18*
X174583835Y-103624534D03*
D21*
X177399633Y-102929639D03*
D18*
X179490738Y-104939335D03*
X179361329Y-105422298D03*
X179640853Y-104379098D03*
D29*
X180210179Y-107161250D03*
%LPC*%
D13*
X195672601Y-116428600D03*
D14*
X190909461Y-113678600D03*
D15*
X200072010Y-118968600D03*
D14*
X200435741Y-119178600D03*
D15*
X191273192Y-113888600D03*
D16*
X202039331Y-115601101D03*
D17*
X193205871Y-110501101D03*
D18*
X196012896Y-110759191D03*
X195722896Y-111261486D03*
X195472896Y-111694498D03*
D19*
X193643044Y-112323895D03*
D20*
X200242158Y-116133895D03*
D18*
X200412306Y-113299191D03*
X199872306Y-114234498D03*
X200122306Y-113801486D03*
D21*
X198622601Y-111319050D03*
D14*
X139570991Y-45643744D03*
D13*
X145070991Y-45643744D03*
D15*
X139990991Y-45643744D03*
X150150991Y-45643744D03*
D14*
X150570991Y-45643744D03*
D18*
X142530991Y-41143744D03*
D22*
X150170991Y-41743744D03*
D18*
X142530991Y-41643744D03*
D23*
X139970991Y-41743744D03*
D24*
X141260991Y-43103744D03*
D18*
X142530991Y-40563744D03*
D21*
X145070991Y-39743744D03*
D18*
X147610991Y-41143744D03*
X147610991Y-40563744D03*
X147610991Y-41643744D03*
D25*
X148880991Y-43103744D03*
D15*
X139990991Y-83643744D03*
D14*
X150570991Y-83643744D03*
X139570991Y-83643744D03*
D15*
X150150991Y-83643744D03*
D13*
X145070991Y-83643744D03*
D24*
X141260991Y-81103744D03*
D18*
X142530991Y-79143744D03*
D22*
X150170991Y-79743744D03*
D18*
X142530991Y-78563744D03*
X142530991Y-79643744D03*
D23*
X139970991Y-79743744D03*
D21*
X145070991Y-77743744D03*
D18*
X147610991Y-79143744D03*
D25*
X148880991Y-81103744D03*
D18*
X147610991Y-79643744D03*
X147610991Y-78563744D03*
D14*
X150570991Y-64643744D03*
D15*
X139990991Y-64643744D03*
D13*
X145070991Y-64643744D03*
D14*
X139570991Y-64643744D03*
D15*
X150150991Y-64643744D03*
D18*
X142530991Y-60143744D03*
D22*
X150170991Y-60743744D03*
D18*
X142530991Y-59563744D03*
D24*
X141260991Y-62103744D03*
D18*
X142530991Y-60643744D03*
D23*
X139970991Y-60743744D03*
D18*
X147610991Y-59563744D03*
X147610991Y-60643744D03*
D25*
X148880991Y-62103744D03*
D21*
X145070991Y-58743744D03*
D18*
X147610991Y-60143744D03*
D14*
X177570992Y-69393540D03*
D13*
X183070992Y-69393540D03*
D15*
X188150992Y-69393540D03*
X177990992Y-69393540D03*
D14*
X188570992Y-69393540D03*
D18*
X180530992Y-65393540D03*
D22*
X188170992Y-65493540D03*
D24*
X179260992Y-66853540D03*
D18*
X180530992Y-64893540D03*
D23*
X177970992Y-65493540D03*
D18*
X180530992Y-64313540D03*
X185610992Y-64313540D03*
X185610992Y-65393540D03*
D25*
X186880992Y-66853540D03*
D18*
X185610992Y-64893540D03*
D21*
X183070992Y-63493540D03*
D15*
X188150992Y-88393540D03*
D14*
X177570992Y-88393540D03*
D13*
X183070992Y-88393540D03*
D14*
X188570992Y-88393540D03*
D15*
X177990992Y-88393540D03*
D18*
X180530992Y-83893540D03*
X180530992Y-83313540D03*
D22*
X188170992Y-84493540D03*
D18*
X180530992Y-84393540D03*
D24*
X179260992Y-85853540D03*
D23*
X177970992Y-84493540D03*
D18*
X185610992Y-83893540D03*
X185610992Y-83313540D03*
D21*
X183070992Y-82493540D03*
D25*
X186880992Y-85853540D03*
D18*
X185610992Y-84393540D03*
D14*
X169570991Y-66894182D03*
D13*
X164070991Y-66894182D03*
D14*
X158570991Y-66894182D03*
D15*
X169150991Y-66894182D03*
X158990991Y-66894182D03*
D23*
X158970991Y-62994182D03*
D18*
X161530991Y-62394182D03*
X161530991Y-62894182D03*
D24*
X160260991Y-64354182D03*
D18*
X161530991Y-61814182D03*
D22*
X169170991Y-62994182D03*
D18*
X166610991Y-62894182D03*
D21*
X164070991Y-60994182D03*
D18*
X166610991Y-61814182D03*
D25*
X167880991Y-64354182D03*
D18*
X166610991Y-62394182D03*
D14*
X169570991Y-47894182D03*
D15*
X158990991Y-47894182D03*
D13*
X164070991Y-47894182D03*
D15*
X169150991Y-47894182D03*
D14*
X158570991Y-47894182D03*
D18*
X161530991Y-43394182D03*
D24*
X160260991Y-45354182D03*
D23*
X158970991Y-43994182D03*
D22*
X169170991Y-43994182D03*
D18*
X161530991Y-43894182D03*
X161530991Y-42814182D03*
X166610991Y-42814182D03*
X166610991Y-43394182D03*
D25*
X167880991Y-45354182D03*
D18*
X166610991Y-43894182D03*
D21*
X164070991Y-41994182D03*
D15*
X177990992Y-50393540D03*
D14*
X177570992Y-50393540D03*
D15*
X188150992Y-50393540D03*
D13*
X183070992Y-50393540D03*
D14*
X188570992Y-50393540D03*
D18*
X180530992Y-45893540D03*
X180530992Y-45313540D03*
D24*
X179260992Y-47853540D03*
D23*
X177970992Y-46493540D03*
D22*
X188170992Y-46493540D03*
D18*
X180530992Y-46393540D03*
X185610992Y-45313540D03*
D25*
X186880992Y-47853540D03*
D18*
X185610992Y-46393540D03*
X185610992Y-45893540D03*
D21*
X183070992Y-44493540D03*
D13*
X126070991Y-66894182D03*
D15*
X120990991Y-66894182D03*
X131150991Y-66894182D03*
D14*
X120570991Y-66894182D03*
X131570991Y-66894182D03*
D18*
X123530991Y-61814182D03*
X123530991Y-62894182D03*
D23*
X120970991Y-62994182D03*
D24*
X122260991Y-64354182D03*
D18*
X123530991Y-62394182D03*
D22*
X131170991Y-62994182D03*
D18*
X128610991Y-62394182D03*
D21*
X126070991Y-60994182D03*
D18*
X128610991Y-62894182D03*
X128610991Y-61814182D03*
D25*
X129880991Y-64354182D03*
D13*
X126070991Y-85894182D03*
D15*
X131150991Y-85894182D03*
D14*
X120570991Y-85894182D03*
X131570991Y-85894182D03*
D15*
X120990991Y-85894182D03*
D23*
X120970991Y-81994182D03*
D18*
X123530991Y-81394182D03*
X123530991Y-81894182D03*
D22*
X131170991Y-81994182D03*
D18*
X123530991Y-80814182D03*
D24*
X122260991Y-83354182D03*
D18*
X128610991Y-80814182D03*
X128610991Y-81394182D03*
X128610991Y-81894182D03*
D25*
X129880991Y-83354182D03*
D21*
X126070991Y-79994182D03*
D30*
X187301000Y-106274200D03*
X173551001Y-58764200D03*
X116574300Y-88954244D03*
D15*
X112150992Y-60342198D03*
D13*
X107070992Y-60342198D03*
D15*
X101990992Y-60342198D03*
D14*
X112570992Y-60342198D03*
X101570992Y-60342198D03*
D24*
X103260992Y-57802198D03*
D18*
X104530992Y-55262198D03*
D23*
X101970992Y-56442198D03*
D18*
X104530992Y-55842198D03*
X104530992Y-56342198D03*
D22*
X112170992Y-56442198D03*
D18*
X109610992Y-56342198D03*
X109610992Y-55842198D03*
D21*
X107070992Y-54442198D03*
D25*
X110880992Y-57802198D03*
D18*
X109610992Y-55262198D03*
D14*
X112570992Y-98342198D03*
X101570992Y-98342198D03*
D13*
X107070992Y-98342198D03*
D15*
X112150992Y-98342198D03*
X101990992Y-98342198D03*
D22*
X112170992Y-94442198D03*
D18*
X104530992Y-93262198D03*
X104530992Y-93842198D03*
D23*
X101970992Y-94442198D03*
D24*
X103260992Y-95802198D03*
D18*
X104530992Y-94342198D03*
X109610992Y-93262198D03*
D21*
X107070992Y-92442198D03*
D18*
X109610992Y-94342198D03*
X109610992Y-93842198D03*
D25*
X110880992Y-95802198D03*
D14*
X131570991Y-47894182D03*
D15*
X120990991Y-47894182D03*
D14*
X120570991Y-47894182D03*
D15*
X131150991Y-47894182D03*
D13*
X126070991Y-47894182D03*
D23*
X120970991Y-43994182D03*
D18*
X123530991Y-43394182D03*
D22*
X131170991Y-43994182D03*
D18*
X123530991Y-42814182D03*
D24*
X122260991Y-45354182D03*
D18*
X123530991Y-43894182D03*
X128610991Y-43894182D03*
X128610991Y-43394182D03*
D25*
X129880991Y-45354182D03*
D18*
X128610991Y-42814182D03*
D21*
X126070991Y-41994182D03*
D15*
X158990991Y-85894182D03*
D14*
X169570991Y-85894182D03*
X158570991Y-85894182D03*
D15*
X169150991Y-85894182D03*
D13*
X164070991Y-85894182D03*
D23*
X158970991Y-81994182D03*
D18*
X161530991Y-80814182D03*
X161530991Y-81894182D03*
D22*
X169170991Y-81994182D03*
D18*
X161530991Y-81394182D03*
D24*
X160260991Y-83354182D03*
D25*
X167880991Y-83354182D03*
D18*
X166610991Y-81894182D03*
D21*
X164070991Y-79994182D03*
D18*
X166610991Y-80814182D03*
X166610991Y-81394182D03*
D14*
X112570992Y-79342198D03*
D15*
X112150992Y-79342198D03*
D14*
X101570992Y-79342198D03*
D15*
X101990992Y-79342198D03*
D13*
X107070992Y-79342198D03*
D18*
X104530992Y-74842198D03*
D23*
X101970992Y-75442198D03*
D18*
X104530992Y-74262198D03*
D22*
X112170992Y-75442198D03*
D24*
X103260992Y-76802198D03*
D18*
X104530992Y-75342198D03*
D25*
X110880992Y-76802198D03*
D18*
X109610992Y-75342198D03*
D21*
X107070992Y-73442198D03*
D18*
X109610992Y-74842198D03*
X109610992Y-74262198D03*
D15*
X149992600Y-105828600D03*
X160152600Y-105828600D03*
D14*
X160572600Y-105828600D03*
X149572600Y-105828600D03*
D13*
X155072600Y-105828600D03*
D18*
X152532600Y-101328600D03*
D23*
X149972600Y-101928600D03*
D24*
X151262600Y-103288600D03*
D18*
X152532600Y-100748600D03*
D22*
X160172600Y-101928600D03*
D18*
X152532600Y-101828600D03*
D25*
X158882600Y-103288600D03*
D21*
X155072600Y-99928600D03*
D18*
X157612600Y-101328600D03*
X157612600Y-100748600D03*
X157612600Y-101828600D03*
D15*
X170965698Y-107313800D03*
D14*
X170560009Y-107205096D03*
D15*
X180779504Y-109943402D03*
D13*
X175872601Y-108628601D03*
D14*
X181185193Y-110052106D03*
D26*
X172849824Y-105189049D03*
D18*
X174454426Y-104107497D03*
D27*
X171955774Y-103541513D03*
D18*
X174733950Y-103064297D03*
D28*
X181808217Y-106181467D03*
D18*
X174583835Y-103624534D03*
D21*
X177399633Y-102929639D03*
D18*
X179490738Y-104939335D03*
X179361329Y-105422298D03*
X179640853Y-104379098D03*
D29*
X180210179Y-107161250D03*
D30*
X116574300Y-69954244D03*
D31*
X193859920Y-63442880D03*
X193859920Y-64542700D03*
X193859920Y-65642520D03*
X193859920Y-66742340D03*
X193859920Y-67842160D03*
X193859920Y-68941980D03*
X193859920Y-70041800D03*
X193859920Y-71141620D03*
X193859920Y-72241440D03*
X193859920Y-73341260D03*
X193859920Y-74441080D03*
X193859920Y-75540900D03*
D32*
X195310260Y-77890400D03*
X196410080Y-77890400D03*
X197509900Y-77890400D03*
X198609720Y-77890400D03*
X199709540Y-77890400D03*
X200809360Y-77890400D03*
X201906640Y-77890400D03*
X203006460Y-77890400D03*
X204106280Y-77890400D03*
X205206100Y-77890400D03*
X206305920Y-77890400D03*
X207405740Y-77890400D03*
D31*
X208856080Y-75540900D03*
X208856080Y-74441080D03*
X208856080Y-73341260D03*
X208856080Y-72241440D03*
X208856080Y-71141620D03*
X208856080Y-70041800D03*
X208856080Y-68941980D03*
X208856080Y-67842160D03*
X208856080Y-66742340D03*
X208856080Y-65642520D03*
X208856080Y-64542700D03*
X208856080Y-63442880D03*
D33*
X198995800Y-86403601D03*
X198995800Y-108373601D03*
D34*
X198995800Y-97388601D03*
D15*
X144692601Y-93688600D03*
D35*
X142152601Y-93688600D03*
X139612601Y-93688600D03*
D36*
X137072601Y-93688600D03*
M02*
